<svg width="113" height="23" viewBox="0 0 113 23" fill="none" xmlns="http://www.w3.org/2000/svg">
<path d="M0.22 0.999999H5.47V22H0.22V0.999999ZM12.61 0.999999H18.55L10.03 10.84L19 22H12.85L4 10.99L12.61 0.999999ZM21.0466 0.999999H26.1166V14.74C26.1166 15.8 26.3966 16.66 26.9566 17.32C27.5166 17.98 28.3566 18.31 29.4766 18.31C30.6166 18.31 31.4666 17.98 32.0266 17.32C32.5866 16.66 32.8666 15.8 32.8666 14.74V0.999999H37.9366V15.1C37.9366 16.42 37.7166 17.57 37.2766 18.55C36.8566 19.53 36.2566 20.34 35.4766 20.98C34.7166 21.6 33.8166 22.07 32.7766 22.39C31.7566 22.71 30.6566 22.87 29.4766 22.87C28.2966 22.87 27.1966 22.71 26.1766 22.39C25.1566 22.07 24.2566 21.6 23.4766 20.98C22.7166 20.34 22.1166 19.53 21.6766 18.55C21.2566 17.57 21.0466 16.42 21.0466 15.1V0.999999ZM52.6417 14.41V10.51H63.2617C63.3617 12.19 63.1917 13.76 62.7517 15.22C62.3117 16.68 61.6317 17.97 60.7117 19.09C59.7917 20.21 58.6417 21.09 57.2617 21.73C55.8817 22.35 54.3017 22.66 52.5217 22.66C50.8417 22.66 49.3017 22.4 47.9017 21.88C46.5017 21.34 45.2917 20.58 44.2717 19.6C43.2517 18.6 42.4517 17.42 41.8717 16.06C41.3117 14.68 41.0317 13.16 41.0317 11.5C41.0317 9.84 41.3217 8.34 41.9017 7C42.4817 5.64 43.3017 4.48 44.3617 3.52C45.4217 2.56 46.6617 1.82 48.0817 1.3C49.5017 0.779999 51.0417 0.519999 52.7017 0.519999C54.1817 0.519999 55.5117 0.729999 56.6917 1.15C57.8717 1.57 58.9117 2.16 59.8117 2.92C60.7317 3.66 61.5217 4.52 62.1817 5.5L57.6817 7.84C57.2017 7 56.5517 6.31 55.7317 5.77C54.9317 5.21 53.9217 4.93 52.7017 4.93C51.5417 4.93 50.4717 5.19 49.4917 5.71C48.5317 6.23 47.7617 6.98 47.1817 7.96C46.6217 8.92 46.3417 10.1 46.3417 11.5C46.3417 12.88 46.6117 14.08 47.1517 15.1C47.7117 16.1 48.4617 16.88 49.4017 17.44C50.3617 17.98 51.4617 18.25 52.7017 18.25C53.4617 18.25 54.1517 18.16 54.7717 17.98C55.3917 17.78 55.9217 17.51 56.3617 17.17C56.8017 16.81 57.1717 16.4 57.4717 15.94C57.7917 15.46 58.0417 14.95 58.2217 14.41H52.6417ZM70.8353 11.5C70.8353 12.74 71.0753 13.84 71.5553 14.8C72.0553 15.74 72.7453 16.48 73.6253 17.02C74.5253 17.56 75.5753 17.83 76.7753 17.83C77.9553 17.83 78.9853 17.56 79.8653 17.02C80.7653 16.48 81.4553 15.74 81.9353 14.8C82.4353 13.84 82.6853 12.74 82.6853 11.5C82.6853 10.26 82.4453 9.17 81.9653 8.23C81.4853 7.27 80.8053 6.52 79.9253 5.98C79.0453 5.44 77.9953 5.17 76.7753 5.17C75.5753 5.17 74.5253 5.44 73.6253 5.98C72.7453 6.52 72.0553 7.27 71.5553 8.23C71.0753 9.17 70.8353 10.26 70.8353 11.5ZM65.4653 11.5C65.4653 9.88 65.7453 8.4 66.3053 7.06C66.8853 5.72 67.6853 4.56 68.7053 3.58C69.7253 2.6 70.9253 1.85 72.3053 1.33C73.6853 0.789999 75.1753 0.519999 76.7753 0.519999C78.3953 0.519999 79.8853 0.789999 81.2453 1.33C82.6253 1.85 83.8253 2.6 84.8453 3.58C85.8653 4.56 86.6553 5.72 87.2153 7.06C87.7753 8.4 88.0553 9.88 88.0553 11.5C88.0553 13.12 87.7753 14.61 87.2153 15.97C86.6753 17.33 85.8953 18.51 84.8753 19.51C83.8753 20.51 82.6853 21.29 81.3053 21.85C79.9253 22.39 78.4153 22.66 76.7753 22.66C75.1153 22.66 73.5953 22.39 72.2153 21.85C70.8353 21.29 69.6353 20.51 68.6153 19.51C67.6153 18.51 66.8353 17.33 66.2753 15.97C65.7353 14.61 65.4653 13.12 65.4653 11.5ZM95.474 11.5C95.474 12.74 95.714 13.84 96.194 14.8C96.694 15.74 97.384 16.48 98.264 17.02C99.164 17.56 100.214 17.83 101.414 17.83C102.594 17.83 103.624 17.56 104.504 17.02C105.404 16.48 106.094 15.74 106.574 14.8C107.074 13.84 107.324 12.74 107.324 11.5C107.324 10.26 107.084 9.17 106.604 8.23C106.124 7.27 105.444 6.52 104.564 5.98C103.684 5.44 102.634 5.17 101.414 5.17C100.214 5.17 99.164 5.44 98.264 5.98C97.384 6.52 96.694 7.27 96.194 8.23C95.714 9.17 95.474 10.26 95.474 11.5ZM90.104 11.5C90.104 9.88 90.384 8.4 90.944 7.06C91.524 5.72 92.324 4.56 93.344 3.58C94.364 2.6 95.564 1.85 96.944 1.33C98.324 0.789999 99.814 0.519999 101.414 0.519999C103.034 0.519999 104.524 0.789999 105.884 1.33C107.264 1.85 108.464 2.6 109.484 3.58C110.504 4.56 111.294 5.72 111.854 7.06C112.414 8.4 112.694 9.88 112.694 11.5C112.694 13.12 112.414 14.61 111.854 15.97C111.314 17.33 110.534 18.51 109.514 19.51C108.514 20.51 107.324 21.29 105.944 21.85C104.564 22.39 103.054 22.66 101.414 22.66C99.754 22.66 98.234 22.39 96.854 21.85C95.474 21.29 94.274 20.51 93.254 19.51C92.254 18.51 91.474 17.33 90.914 15.97C90.374 14.61 90.104 13.12 90.104 11.5Z" fill="#282739"/>
</svg>
