<svg width="50" height="50" viewBox="0 0 50 50" fill="none" xmlns="http://www.w3.org/2000/svg">
<rect width="50" height="50" rx="16.0256" fill="#C4C4C4"/>
<rect width="50" height="50" rx="16.0256" fill="url(#paint0_linear_74_3504)"/>
<path d="M10.4971 19.3918C10.4971 18.2747 11.4026 17.3691 12.5197 17.3691H26.1002C28.8131 17.3691 31.0123 19.5684 31.0123 22.2812V31.2386C31.0123 32.3557 30.1068 33.2612 28.9897 33.2612H15.4092C12.6963 33.2612 10.4971 31.062 10.4971 28.3491V19.3918Z" fill="white"/>
<path d="M32.168 22.9325C32.168 22.1352 32.5337 21.3819 33.1604 20.8888L37.2322 17.6848C37.9904 17.0881 39.1027 17.6283 39.1027 18.5931V32.243C39.1027 33.2221 37.9616 33.7577 37.2084 33.1321L33.1069 29.7254C32.5121 29.2313 32.168 28.4982 32.168 27.7249V22.9325Z" fill="white"/>
<defs>
<linearGradient id="paint0_linear_74_3504" x1="25" y1="0" x2="25" y2="50" gradientUnits="userSpaceOnUse">
<stop stop-color="#539DFF"/>
<stop offset="1" stop-color="#2777FC"/>
</linearGradient>
</defs>
</svg>
