<svg width="136" height="45" viewBox="0 0 136 45" fill="none" xmlns="http://www.w3.org/2000/svg">
<g id="Group">
<g id="Group_2">
<g id="Group_3">
<path id="Vector" d="M124.357 0.00014625H11.1816C10.7691 0.00014625 10.3615 0.00014625 9.95002 0.00239625C9.6056 0.00464625 9.26393 0.0111825 8.9162 0.0166837C8.16078 0.0255733 7.40714 0.092032 6.66182 0.215482C5.91754 0.34162 5.19658 0.579426 4.52333 0.920857C3.85089 1.26518 3.23647 1.71258 2.70234 2.24685C2.16542 2.77961 1.71785 3.39541 1.37685 4.07058C1.0349 4.74439 0.797799 5.46645 0.673722 6.21181C0.548465 6.95623 0.481064 7.70923 0.472122 8.46406C0.461682 8.80899 0.460579 9.15506 0.455078 9.50003V35.5036C0.460579 35.8529 0.461682 36.1913 0.472122 36.5407C0.481067 37.2955 0.548468 38.0485 0.673722 38.7928C0.797456 39.5386 1.03457 40.2611 1.37685 40.9352C1.71769 41.6082 2.16533 42.2215 2.70234 42.7513C3.23444 43.2879 3.84926 43.7356 4.52333 44.0773C5.19658 44.4196 5.91746 44.6589 6.66182 44.787C7.40726 44.9094 8.16083 44.9759 8.9162 44.9859C9.26393 44.9935 9.6056 44.9979 9.95002 44.9979C10.3615 45.0001 10.7691 45.0001 11.1816 45.0001H124.357C124.761 45.0001 125.172 45.0001 125.576 44.9979C125.919 44.9979 126.271 44.9935 126.613 44.9859C127.367 44.9764 128.119 44.9099 128.863 44.787C129.61 44.658 130.334 44.4188 131.01 44.0773C131.684 43.7354 132.298 43.2877 132.829 42.7513C133.365 42.2194 133.814 41.6065 134.159 40.9352C134.498 40.2606 134.733 39.5382 134.855 38.7928C134.981 38.0484 135.05 37.2956 135.064 36.5407C135.068 36.1913 135.068 35.8529 135.068 35.5036C135.077 35.0949 135.077 34.6884 135.077 34.273V10.7283C135.077 10.3163 135.077 9.90761 135.068 9.50003C135.068 9.15506 135.068 8.80899 135.064 8.46402C135.05 7.70912 134.981 6.95629 134.855 6.21177C134.733 5.46684 134.498 4.74484 134.159 4.07053C133.464 2.71724 132.363 1.61567 131.01 0.920756C130.334 0.580159 129.61 0.342417 128.863 0.215381C128.12 0.0913869 127.367 0.024905 126.613 0.0165262C126.271 0.0110362 125.919 0.00444375 125.576 0.00225C125.172 0 124.761 0 124.357 0V0.00014625Z" fill="white"/>
</g>
<g id="&#60;Group&#62;">
<g id="&#60;Group&#62;_2">
<g id="&#60;Group&#62;_3">
<path id="&#60;Path&#62;" d="M28.5767 22.3753C28.5893 21.3988 28.8487 20.4414 29.3307 19.5921C29.8127 18.7429 30.5017 18.0293 31.3336 17.5179C30.8052 16.7631 30.108 16.142 29.2974 15.7038C28.4869 15.2656 27.5854 15.0225 26.6645 14.9936C24.6999 14.7874 22.7954 16.1692 21.7943 16.1692C20.7739 16.1692 19.2326 15.0141 17.5728 15.0483C16.4992 15.0829 15.4529 15.3951 14.5359 15.9544C13.6189 16.5137 12.8623 17.301 12.34 18.2395C10.0775 22.1568 11.7651 27.9139 13.9325 31.0803C15.0168 32.6308 16.2841 34.3628 17.9424 34.3013C19.5651 34.234 20.1711 33.2666 22.1299 33.2666C24.0704 33.2666 24.639 34.3013 26.3309 34.2623C28.0722 34.234 29.1692 32.7049 30.2155 31.1397C30.9947 30.0349 31.5942 28.8139 31.9919 27.5218C30.9803 27.094 30.117 26.3778 29.5097 25.4626C28.9024 24.5474 28.5779 23.4737 28.5767 22.3753Z" fill="#282739"/>
<path id="&#60;Path&#62;_2" d="M25.3811 12.9118C26.3305 11.772 26.7982 10.3071 26.685 8.82812C25.2345 8.98047 23.8947 9.67369 22.9325 10.7697C22.462 11.3051 22.1017 11.928 21.8721 12.6027C21.6425 13.2775 21.5482 13.9909 21.5945 14.7021C22.3199 14.7096 23.0377 14.5523 23.6936 14.2422C24.3495 13.9321 24.9265 13.4772 25.3811 12.9118Z" fill="#282739"/>
</g>
</g>
<g id="Group_4">
<path id="Vector_2" d="M48.0449 30.5321H42.7198L41.441 34.3081H39.1855L44.2294 20.3379H46.5727L51.6166 34.3081H49.3226L48.0449 30.5321ZM43.2714 28.7897H47.4924L45.4115 22.6615H45.3533L43.2714 28.7897Z" fill="#282739"/>
<path id="Vector_3" d="M62.5094 29.2154C62.5094 32.3806 60.8153 34.4141 58.2588 34.4141C57.6112 34.448 56.9671 34.2988 56.4004 33.9837C55.8336 33.6685 55.367 33.2001 55.0541 32.6321H55.0057V37.677H52.915V24.1221H54.9387V25.8162H54.9772C55.3045 25.2509 55.7789 24.785 56.35 24.4679C56.9211 24.1508 57.5675 23.9945 58.2203 24.0155C60.8054 24.0156 62.5094 26.059 62.5094 29.2154ZM60.3605 29.2154C60.3605 27.1533 59.2948 25.7975 57.6688 25.7975C56.0714 25.7975 54.997 27.1818 54.997 29.2154C54.997 31.2676 56.0714 32.642 57.6688 32.642C59.2948 32.642 60.3605 31.2962 60.3605 29.2154H60.3605Z" fill="#282739"/>
<path id="Vector_4" d="M73.7204 29.2154C73.7204 32.3806 72.0258 34.4141 69.4693 34.4141C68.8217 34.448 68.1776 34.2988 67.6108 33.9837C67.0441 33.6685 66.5775 33.2001 66.2646 32.6321H66.2162V37.677H64.1255V24.1221H66.1492V25.8162H66.1876C66.5149 25.2509 66.9894 24.785 67.5605 24.4679C68.1316 24.1508 68.7779 23.9945 69.4308 24.0155C72.0159 24.0156 73.7204 26.059 73.7204 29.2154ZM71.571 29.2154C71.571 27.1533 70.5053 25.7975 68.8793 25.7975C67.2819 25.7975 66.2074 27.1818 66.2074 29.2154C66.2074 31.2676 67.2819 32.642 68.8793 32.642C70.5053 32.642 71.571 31.2962 71.571 29.2154Z" fill="#282739"/>
<path id="Vector_5" d="M81.1285 30.4162C81.2834 31.8016 82.6292 32.7112 84.4683 32.7112C86.2305 32.7112 87.4983 31.8015 87.4983 30.5524C87.4983 29.468 86.7337 28.8188 84.9232 28.3738L83.1126 27.9376C80.5473 27.318 79.3564 26.1183 79.3564 24.1715C79.3564 21.7611 81.457 20.1055 84.4387 20.1055C87.3918 20.1055 89.4155 21.7611 89.4836 24.1715H87.3731C87.2468 22.7773 86.0943 21.9358 84.4101 21.9358C82.7259 21.9358 81.5734 22.7872 81.5734 24.0265C81.5734 25.0142 82.3095 25.5953 84.1102 26.0402L85.6493 26.4182C88.5157 27.096 89.7055 28.2474 89.7055 30.2909C89.7055 32.9045 87.6247 34.5415 84.3134 34.5415C81.2152 34.5415 79.1234 32.943 78.9883 30.4161L81.1285 30.4162Z" fill="#282739"/>
<path id="Vector_6" d="M94.2202 21.7129V24.1233H96.1571V25.7789H94.2202V31.394C94.2202 32.2664 94.608 32.6729 95.4595 32.6729C95.6894 32.6688 95.919 32.6527 96.1472 32.6245V34.2702C95.7644 34.3418 95.3753 34.3742 94.986 34.3669C92.9238 34.3669 92.1196 33.5924 92.1196 31.617V25.7789H90.6387V24.1233H92.1196V21.7129H94.2202Z" fill="#282739"/>
<path id="Vector_7" d="M97.2773 29.2165C97.2773 26.0118 99.1648 23.998 102.108 23.998C105.061 23.998 106.94 26.0118 106.94 29.2165C106.94 32.4301 105.071 34.4351 102.108 34.4351C99.1461 34.4351 97.2773 32.43 97.2773 29.2165ZM104.81 29.2165C104.81 27.0182 103.802 25.7207 102.108 25.7207C100.414 25.7207 99.4065 27.0281 99.4065 29.2165C99.4065 31.4237 100.414 32.7113 102.108 32.7113C103.802 32.7113 104.81 31.4237 104.81 29.2165H104.81Z" fill="#282739"/>
<path id="Vector_8" d="M108.664 24.122H110.658V25.8557H110.706C110.841 25.3142 111.158 24.8357 111.604 24.5006C112.05 24.1655 112.598 23.9942 113.156 24.0154C113.397 24.0146 113.637 24.0408 113.872 24.0935V26.049C113.568 25.9561 113.251 25.9134 112.933 25.9227C112.629 25.9104 112.326 25.9639 112.045 26.0797C111.764 26.1954 111.512 26.3706 111.305 26.5932C111.098 26.8159 110.941 27.0806 110.846 27.3694C110.751 27.6581 110.72 27.964 110.754 28.2661V34.3074H108.664L108.664 24.122Z" fill="#282739"/>
<path id="Vector_9" d="M123.512 31.3171C123.23 33.1661 121.43 34.4351 119.126 34.4351C116.163 34.4351 114.324 32.4498 114.324 29.2649C114.324 26.0701 116.173 23.998 119.038 23.998C121.856 23.998 123.628 25.9338 123.628 29.0221V29.7384H116.434V29.8647C116.401 30.2396 116.448 30.6172 116.572 30.9725C116.696 31.3279 116.894 31.6527 117.153 31.9256C117.412 32.1985 117.727 32.4131 118.075 32.5552C118.423 32.6973 118.798 32.7636 119.174 32.7497C119.668 32.796 120.164 32.6816 120.588 32.4235C121.012 32.1654 121.341 31.7773 121.526 31.3171L123.512 31.3171ZM116.444 28.2772H121.536C121.555 27.9402 121.504 27.6029 121.386 27.2865C121.268 26.9702 121.087 26.6816 120.852 26.4388C120.617 26.1961 120.335 26.0045 120.023 25.876C119.711 25.7475 119.375 25.6849 119.038 25.6921C118.697 25.6901 118.36 25.7555 118.045 25.8846C117.73 26.0137 117.444 26.2039 117.202 26.4442C116.961 26.6846 116.77 26.9703 116.64 27.2849C116.51 27.5995 116.443 27.9368 116.444 28.2772V28.2772Z" fill="#282739"/>
</g>
</g>
</g>
<g id="&#60;Group&#62;_4">
<g id="Group_5">
<path id="Vector_10" d="M41.7855 12.661H42.6831C42.8376 12.6803 42.9944 12.6673 43.1437 12.6229C43.2929 12.5786 43.4314 12.5037 43.5503 12.4032C43.6692 12.3027 43.766 12.1786 43.8346 12.0388C43.9031 11.899 43.942 11.7465 43.9487 11.591C43.9487 10.9719 43.4829 10.572 42.693 10.572C42.5347 10.5499 42.3736 10.5597 42.2191 10.6009C42.0647 10.6421 41.92 10.7138 41.7938 10.8118C41.6675 10.9098 41.5621 11.0321 41.4839 11.1715C41.4057 11.3109 41.3562 11.4645 41.3384 11.6234H40.3529C40.3698 11.335 40.446 11.0533 40.5765 10.7957C40.7071 10.538 40.8893 10.31 41.1118 10.1258C41.3343 9.94168 41.5924 9.80529 41.8699 9.72517C42.1474 9.64504 42.4384 9.6229 42.7248 9.66013C44.0465 9.66013 44.9771 10.4 44.9771 11.4652C44.9802 11.822 44.8608 12.1691 44.6388 12.4485C44.4169 12.7279 44.1058 12.9228 43.7576 13.0005V13.0796C44.1704 13.0979 44.5593 13.279 44.8391 13.5831C45.1188 13.8873 45.2668 14.2899 45.2506 14.7028C45.2201 14.9997 45.1305 15.2875 44.9873 15.5494C44.8441 15.8112 44.6501 16.0418 44.4166 16.2277C44.1831 16.4135 43.9148 16.5509 43.6275 16.6318C43.3402 16.7126 43.0397 16.7353 42.7435 16.6985C42.4467 16.739 42.1448 16.7193 41.8558 16.6406C41.5668 16.5619 41.2966 16.4258 41.0613 16.2404C40.826 16.0551 40.6305 15.8242 40.4863 15.5617C40.3421 15.2991 40.2523 15.0102 40.2222 14.7122H41.223C41.2835 15.3543 41.8734 15.7686 42.7435 15.7686C43.6136 15.7686 44.1816 15.3033 44.1816 14.6474C44.1816 13.9822 43.6466 13.5724 42.7117 13.5724H41.7855V12.661Z" fill="#282739"/>
<path id="Vector_11" d="M46.3877 15.104C46.3877 14.1921 47.0677 13.6664 48.2718 13.5917L49.644 13.5126V13.0754C49.644 12.5403 49.2914 12.2382 48.6069 12.2382C48.0488 12.2382 47.6632 12.4431 47.5511 12.8013H46.5833C46.6854 11.9311 47.505 11.373 48.6542 11.373C49.9242 11.373 50.6405 12.0053 50.6405 13.0754V16.5366H49.677V15.8247H49.5979C49.4374 16.0801 49.2119 16.2883 48.9446 16.428C48.6772 16.5677 48.3776 16.634 48.0763 16.6201C47.8636 16.6422 47.6487 16.6195 47.4453 16.5535C47.242 16.4874 47.0547 16.3795 46.8956 16.2367C46.7365 16.0938 46.6091 15.9192 46.5217 15.7242C46.4342 15.5291 46.3885 15.3178 46.3877 15.104ZM49.644 14.6711V14.2476L48.4069 14.3267C47.7093 14.3734 47.3929 14.6107 47.3929 15.0573C47.3929 15.5132 47.7884 15.7785 48.3323 15.7785C48.4916 15.7947 48.6526 15.7786 48.8056 15.7313C48.9586 15.6839 49.1005 15.6063 49.2229 15.5029C49.3453 15.3996 49.4457 15.2727 49.518 15.1298C49.5904 14.9869 49.6332 14.8309 49.644 14.6711Z" fill="#282739"/>
<path id="Vector_12" d="M53.2937 12.3123V16.5365H52.2939V11.4707H55.6294V12.3122L53.2937 12.3123Z" fill="#282739"/>
<path id="Vector_13" d="M61.6882 14.002C61.6882 15.6115 60.8742 16.6206 59.5953 16.6206C59.2814 16.642 58.9679 16.5733 58.6917 16.4226C58.4155 16.2718 58.1882 16.0453 58.0364 15.7697H57.9573V18.2213H56.9575V11.4713H57.9199V12.3085H57.9946C58.1491 12.0232 58.3795 11.7862 58.6602 11.6236C58.9409 11.4611 59.2611 11.3793 59.5855 11.3873C60.8741 11.3872 61.6882 12.3919 61.6882 14.002ZM60.6599 14.002C60.6599 12.9319 60.1534 12.2854 59.3064 12.2854C58.4649 12.2854 57.9386 12.9456 57.9386 14.0064C57.9386 15.0622 58.4649 15.723 59.302 15.723C60.1534 15.723 60.6599 15.0764 60.6599 14.002Z" fill="#282739"/>
<path id="Vector_14" d="M63.0198 18.3509V17.4901C63.128 17.5039 63.237 17.5101 63.3461 17.5088C63.5591 17.5246 63.7704 17.4611 63.9395 17.3307C64.1086 17.2002 64.2236 17.0119 64.2623 16.8018L64.337 16.5552L62.5034 11.4707H63.5922L64.8622 15.4944H64.9413L66.207 11.4707H67.2671L65.3786 16.7458C64.9457 17.9785 64.4667 18.374 63.434 18.374C63.3505 18.374 63.1132 18.3646 63.0198 18.3509Z" fill="#282739"/>
<path id="Vector_15" d="M68.0464 15.0981H69.0418C69.1395 15.5447 69.5581 15.7776 70.1437 15.7776C70.8095 15.7776 71.2181 15.4842 71.2181 15.0283C71.2181 14.54 70.8512 14.3071 70.1437 14.3071H69.3856V13.5303H70.1305C70.7347 13.5303 71.0424 13.298 71.0424 12.8745C71.0424 12.5026 70.7446 12.2186 70.1305 12.2186C69.5713 12.2186 69.1626 12.4559 69.0977 12.8558H68.1343C68.2063 12.3963 68.4558 11.9834 68.8291 11.7059C69.2024 11.4285 69.6697 11.3086 70.1305 11.3721C71.3346 11.3721 72.0234 11.9165 72.0234 12.7723C72.0291 13.0106 71.9527 13.2437 71.8071 13.4324C71.6615 13.6212 71.4556 13.7543 71.2236 13.8094V13.8885C71.4998 13.9241 71.7532 14.0599 71.9359 14.27C72.1185 14.4801 72.2177 14.75 72.2146 15.0283C72.2146 15.9913 71.395 16.6285 70.1437 16.6285C69.0374 16.6285 68.1387 16.1215 68.0464 15.0981Z" fill="#282739"/>
<path id="Vector_16" d="M73.6543 16.5365V11.4707H74.6453V14.955H74.7244L77.059 11.4707H78.0499V16.5365H77.059V13.0335H76.9843L74.6453 16.5365L73.6543 16.5365Z" fill="#282739"/>
<path id="Vector_17" d="M83.5092 12.3122H81.914V16.5364H80.9131V12.3122H79.3179V11.4707H83.5092V12.3122Z" fill="#282739"/>
<path id="Vector_18" d="M88.8943 15.1689C88.7581 15.6319 88.4635 16.0323 88.0621 16.3001C87.6607 16.568 87.1779 16.6864 86.6981 16.6345C86.3644 16.6433 86.0327 16.5794 85.7261 16.4472C85.4196 16.3149 85.1455 16.1176 84.9228 15.8688C84.7002 15.62 84.5343 15.3258 84.4368 15.0065C84.3393 14.6872 84.3124 14.3505 84.358 14.0197C84.3136 13.688 84.3409 13.3506 84.4382 13.0303C84.5355 12.7101 84.7005 12.4144 84.922 12.1635C85.1435 11.9125 85.4163 11.7121 85.7219 11.5757C86.0276 11.4394 86.359 11.3703 86.6937 11.3731C88.1033 11.3731 88.9547 12.3361 88.9547 13.9269V14.2757H85.3776V14.3318C85.3617 14.5177 85.385 14.7049 85.4458 14.8813C85.5066 15.0578 85.6037 15.2195 85.7307 15.3562C85.8578 15.4929 86.012 15.6014 86.1836 15.675C86.3551 15.7485 86.5401 15.7853 86.7267 15.783C86.9657 15.8116 87.2078 15.7685 87.4222 15.6591C87.6366 15.5498 87.8136 15.3791 87.9308 15.1689L88.8943 15.1689ZM85.3775 13.5363H87.9352C87.9478 13.3664 87.9247 13.1957 87.8675 13.0352C87.8103 12.8747 87.7201 12.728 87.6028 12.6044C87.4854 12.4808 87.3436 12.3831 87.1862 12.3176C87.0289 12.2521 86.8597 12.2202 86.6893 12.224C86.5164 12.2217 86.3447 12.254 86.1844 12.3191C86.0242 12.3843 85.8786 12.4809 85.7563 12.6032C85.634 12.7255 85.5375 12.8711 85.4725 13.0314C85.4074 13.1917 85.3751 13.3634 85.3776 13.5363H85.3775Z" fill="#282739"/>
<path id="Vector_19" d="M93.1328 11.4707H95.4169C96.4078 11.4707 96.989 11.9728 96.989 12.7588C96.9905 13.0082 96.9064 13.2506 96.7506 13.4454C96.5948 13.6402 96.3768 13.7756 96.1332 13.8289V13.908C96.429 13.9267 96.7064 14.0583 96.908 14.2756C97.1096 14.493 97.22 14.7794 97.2164 15.0758C97.2164 15.9597 96.5517 16.5365 95.4399 16.5365H93.1328V11.4707ZM94.1238 12.2381V13.5498H95.1147C95.719 13.5498 96.0079 13.3175 96.0079 12.889C96.0079 12.4941 95.7564 12.2381 95.2257 12.2381L94.1238 12.2381ZM94.1238 14.2849V15.7691H95.3092C95.9003 15.7691 96.2167 15.5082 96.2167 15.0292C96.2167 14.5222 95.8586 14.2849 95.184 14.2849L94.1238 14.2849Z" fill="#282739"/>
</g>
</g>
</g>
</svg>
