<svg width="20" height="20" viewBox="0 0 20 20" fill="none" xmlns="http://www.w3.org/2000/svg">
<mask id="path-1-inside-1_5_18134" fill="white">
<path d="M19.4141 11.264H18.7766L16.7349 6.32556C17.0208 6.28666 17.2413 6.0422 17.2413 5.74564C17.2413 5.42205 16.979 5.1597 16.6554 5.1597H11.6177C11.3769 4.49091 10.7363 4.01138 9.98559 4.01138C9.23488 4.01138 8.59422 4.49095 8.3534 5.1597H3.34465C3.02105 5.1597 2.75871 5.42205 2.75871 5.74564C2.75871 6.0422 2.97926 6.28666 3.26512 6.32556L1.22344 11.264H0.585938C0.262344 11.264 0 11.5263 0 11.8499C0 14.132 1.85668 15.9887 4.13883 15.9887C6.42098 15.9887 8.27766 14.132 8.27766 11.8499C8.27766 11.5263 8.01531 11.264 7.69172 11.264H7.05418L5.01504 6.33158H8.3534C8.59422 7.00037 9.23484 7.4799 9.98559 7.4799C10.7363 7.4799 11.3769 7.00037 11.6177 6.33158H14.985L12.9459 11.264H12.3083C11.9847 11.264 11.7224 11.5263 11.7224 11.8499C11.7224 14.132 13.5791 15.9887 15.8612 15.9887C18.1434 15.9887 20 14.132 20 11.8499C20 11.5263 19.7377 11.264 19.4141 11.264ZM4.13883 14.8169C2.70332 14.8169 1.5027 13.7922 1.22996 12.4358H7.0477C6.77496 13.7922 5.57434 14.8169 4.13883 14.8169ZM5.78613 11.264H2.49152L4.13883 7.27943L5.78613 11.264ZM9.98555 6.30802C9.67543 6.30802 9.42316 6.05576 9.42316 5.74564C9.42316 5.43552 9.67543 5.18326 9.98555 5.18326C10.2956 5.18326 10.5479 5.43552 10.5479 5.74564C10.5479 6.05576 10.2957 6.30802 9.98555 6.30802ZM15.8612 7.27943L17.5085 11.264H14.2139L15.8612 7.27943ZM15.8612 14.8169C14.4257 14.8169 13.225 13.7922 12.9523 12.4358H18.77C18.4973 13.7922 17.2966 14.8169 15.8612 14.8169Z"/>
</mask>
<path d="M19.4141 11.264H18.7766L16.7349 6.32556C17.0208 6.28666 17.2413 6.0422 17.2413 5.74564C17.2413 5.42205 16.979 5.1597 16.6554 5.1597H11.6177C11.3769 4.49091 10.7363 4.01138 9.98559 4.01138C9.23488 4.01138 8.59422 4.49095 8.3534 5.1597H3.34465C3.02105 5.1597 2.75871 5.42205 2.75871 5.74564C2.75871 6.0422 2.97926 6.28666 3.26512 6.32556L1.22344 11.264H0.585938C0.262344 11.264 0 11.5263 0 11.8499C0 14.132 1.85668 15.9887 4.13883 15.9887C6.42098 15.9887 8.27766 14.132 8.27766 11.8499C8.27766 11.5263 8.01531 11.264 7.69172 11.264H7.05418L5.01504 6.33158H8.3534C8.59422 7.00037 9.23484 7.4799 9.98559 7.4799C10.7363 7.4799 11.3769 7.00037 11.6177 6.33158H14.985L12.9459 11.264H12.3083C11.9847 11.264 11.7224 11.5263 11.7224 11.8499C11.7224 14.132 13.5791 15.9887 15.8612 15.9887C18.1434 15.9887 20 14.132 20 11.8499C20 11.5263 19.7377 11.264 19.4141 11.264ZM4.13883 14.8169C2.70332 14.8169 1.5027 13.7922 1.22996 12.4358H7.0477C6.77496 13.7922 5.57434 14.8169 4.13883 14.8169ZM5.78613 11.264H2.49152L4.13883 7.27943L5.78613 11.264ZM9.98555 6.30802C9.67543 6.30802 9.42316 6.05576 9.42316 5.74564C9.42316 5.43552 9.67543 5.18326 9.98555 5.18326C10.2956 5.18326 10.5479 5.43552 10.5479 5.74564C10.5479 6.05576 10.2957 6.30802 9.98555 6.30802ZM15.8612 7.27943L17.5085 11.264H14.2139L15.8612 7.27943ZM15.8612 14.8169C14.4257 14.8169 13.225 13.7922 12.9523 12.4358H18.77C18.4973 13.7922 17.2966 14.8169 15.8612 14.8169Z" fill="#5D6C7B"/>
<path d="M18.7766 11.264L15.08 12.7922L16.1019 15.264H18.7766V11.264ZM16.7349 6.32556L16.1956 2.36209L11.0571 3.06136L13.0384 7.8538L16.7349 6.32556ZM11.6177 5.1597L7.85429 6.51486L8.80665 9.1597H11.6177V5.1597ZM8.3534 5.1597V9.1597H11.1644L12.1168 6.51493L8.3534 5.1597ZM3.26512 6.32556L6.96166 7.85382L8.94296 3.06146L3.80455 2.3621L3.26512 6.32556ZM1.22344 11.264V15.264H3.89809L4.91998 12.7922L1.22344 11.264ZM7.05418 11.264L3.35762 12.7922L4.3795 15.264H7.05418V11.264ZM5.01504 6.33158V2.33158H-0.966991L1.31848 7.85981L5.01504 6.33158ZM8.3534 6.33158L12.1168 4.97642L11.1645 2.33158H8.3534V6.33158ZM11.6177 6.33158V2.33158H8.80665L7.85429 4.97642L11.6177 6.33158ZM14.985 6.33158L18.6816 7.8598L20.967 2.33158H14.985V6.33158ZM12.9459 11.264V15.264H15.6205L16.6424 12.7922L12.9459 11.264ZM1.22996 12.4358V8.43584H-3.65441L-2.69155 13.2244L1.22996 12.4358ZM7.0477 12.4358L10.9692 13.2244L11.9321 8.43584H7.0477V12.4358ZM5.78613 11.264V15.264H11.7682L9.48268 9.73572L5.78613 11.264ZM2.49152 11.264L-1.20502 9.73572L-3.49054 15.264H2.49152V11.264ZM4.13883 7.27943L7.83538 5.75118L4.13883 -3.19009L0.44228 5.75118L4.13883 7.27943ZM15.8612 7.27943L19.5577 5.75118L15.8612 -3.19009L12.1646 5.75118L15.8612 7.27943ZM17.5085 11.264V15.264H23.4905L21.205 9.73572L17.5085 11.264ZM14.2139 11.264L10.5173 9.73572L8.2318 15.264H14.2139V11.264ZM12.9523 12.4358V8.43584H8.06793L9.0308 13.2244L12.9523 12.4358ZM18.77 12.4358L22.6915 13.2244L23.6544 8.43584H18.77V12.4358ZM19.4141 7.26396H18.7766V15.264H19.4141V7.26396ZM22.4731 9.73573L20.4315 4.79733L13.0384 7.8538L15.08 12.7922L22.4731 9.73573ZM17.2743 10.289C19.5083 9.98502 21.2413 8.07737 21.2413 5.74564H13.2413C13.2413 4.00703 14.5334 2.58829 16.1956 2.36209L17.2743 10.289ZM21.2413 5.74564C21.2413 3.21291 19.1881 1.1597 16.6554 1.1597V9.1597C14.7698 9.1597 13.2413 7.63119 13.2413 5.74564H21.2413ZM16.6554 1.1597H11.6177V9.1597H16.6554V1.1597ZM15.3812 3.80455C14.5889 1.60417 12.4809 0.0113831 9.98559 0.0113831V8.01138C8.99163 8.01138 8.16497 7.37766 7.85429 6.51486L15.3812 3.80455ZM9.98559 0.0113831C7.49022 0.0113831 5.38231 1.6042 4.58997 3.80448L12.1168 6.51493C11.8061 7.37771 10.9795 8.01138 9.98559 8.01138V0.0113831ZM8.3534 1.1597H3.34465V9.1597H8.3534V1.1597ZM3.34465 1.1597C0.811916 1.1597 -1.24129 3.21291 -1.24129 5.74564H6.75871C6.75871 7.63119 5.23019 9.1597 3.34465 9.1597V1.1597ZM-1.24129 5.74564C-1.24129 8.07761 0.492035 9.98502 2.72568 10.289L3.80455 2.3621C5.46648 2.5883 6.75871 4.0068 6.75871 5.74564H-1.24129ZM-0.431425 4.7973L-2.4731 9.7357L4.91998 12.7922L6.96166 7.85382L-0.431425 4.7973ZM1.22344 7.26396H0.585938V15.264H1.22344V7.26396ZM0.585938 7.26396C-1.9468 7.26396 -4 9.31717 -4 11.8499H4C4 13.7354 2.47148 15.264 0.585938 15.264V7.26396ZM-4 11.8499C-4 16.3412 -0.352459 19.9887 4.13883 19.9887V11.9887C4.11514 11.9887 4.10112 11.9847 4.08983 11.9799C4.07582 11.974 4.05865 11.9633 4.04204 11.9467C4.02542 11.9301 4.01476 11.9129 4.00882 11.8989C4.00404 11.8876 4 11.8736 4 11.8499H-4ZM4.13883 19.9887C8.63012 19.9887 12.2777 16.3412 12.2777 11.8499H4.27766C4.27766 11.8736 4.27362 11.8876 4.26883 11.8989C4.2629 11.9129 4.25223 11.9301 4.23562 11.9467C4.21901 11.9633 4.20183 11.974 4.18783 11.9799C4.17654 11.9847 4.16251 11.9887 4.13883 11.9887V19.9887ZM12.2777 11.8499C12.2777 9.31717 10.2245 7.26396 7.69172 7.26396V15.264C5.80617 15.264 4.27766 13.7354 4.27766 11.8499H12.2777ZM7.69172 7.26396H7.05418V15.264H7.69172V7.26396ZM10.7507 9.73573L8.71159 4.80335L1.31848 7.85981L3.35762 12.7922L10.7507 9.73573ZM5.01504 10.3316H8.3534V2.33158H5.01504V10.3316ZM4.58995 7.68674C5.38229 9.88717 7.49024 11.4799 9.98559 11.4799V3.4799C10.9795 3.4799 11.8061 4.11357 12.1168 4.97642L4.58995 7.68674ZM9.98559 11.4799C12.4809 11.4799 14.5889 9.88712 15.3812 7.68674L7.85429 4.97642C8.16497 4.11362 8.99163 3.4799 9.98559 3.4799V11.4799ZM11.6177 10.3316H14.985V2.33158H11.6177V10.3316ZM11.2884 4.80335L9.2493 9.73573L16.6424 12.7922L18.6816 7.8598L11.2884 4.80335ZM12.9459 7.26396H12.3083V15.264H12.9459V7.26396ZM12.3083 7.26396C9.77559 7.26396 7.72238 9.31717 7.72238 11.8499H15.7224C15.7224 13.7354 14.1939 15.264 12.3083 15.264V7.26396ZM7.72238 11.8499C7.72238 16.3412 11.3699 19.9887 15.8612 19.9887V11.9887C15.8375 11.9887 15.8235 11.9847 15.8122 11.9799C15.7982 11.974 15.781 11.9633 15.7644 11.9467C15.7478 11.9301 15.7371 11.9129 15.7312 11.8989C15.7264 11.8876 15.7224 11.8736 15.7224 11.8499H7.72238ZM15.8612 19.9887C20.3525 19.9887 24 16.3411 24 11.8499H16C16 11.8736 15.996 11.8876 15.9912 11.8989C15.9852 11.9129 15.9746 11.9301 15.958 11.9467C15.9414 11.9633 15.9242 11.974 15.9102 11.9799C15.8989 11.9847 15.8849 11.9887 15.8612 11.9887V19.9887ZM24 11.8499C24 9.31717 21.9468 7.26396 19.4141 7.26396V15.264C17.5285 15.264 16 13.7354 16 11.8499H24ZM4.13883 10.8169C4.64856 10.8169 5.05659 11.1755 5.15147 11.6473L-2.69155 13.2244C-2.0512 16.4089 0.758084 18.8169 4.13883 18.8169V10.8169ZM1.22996 16.4358H7.0477V8.43584H1.22996V16.4358ZM3.12619 11.6473C3.22107 11.1755 3.6291 10.8169 4.13883 10.8169V18.8169C7.51957 18.8169 10.3289 16.4089 10.9692 13.2244L3.12619 11.6473ZM5.78613 7.26396H2.49152V15.264H5.78613V7.26396ZM6.18807 12.7922L7.83538 8.80768L0.44228 5.75118L-1.20502 9.73572L6.18807 12.7922ZM0.44228 8.80767L2.08958 12.7922L9.48268 9.73572L7.83538 5.75118L0.44228 8.80767ZM9.98555 2.30802C11.8846 2.30802 13.4232 3.84662 13.4232 5.74564H5.42316C5.42316 8.2649 7.46629 10.308 9.98555 10.308V2.30802ZM13.4232 5.74564C13.4232 7.64466 11.8846 9.18326 9.98555 9.18326V1.18326C7.46629 1.18326 5.42316 3.22639 5.42316 5.74564H13.4232ZM9.98555 9.18326C8.08667 9.18326 6.54793 7.64484 6.54793 5.74564H14.5479C14.5479 3.22621 12.5046 1.18326 9.98555 1.18326V9.18326ZM6.54793 5.74564C6.54793 3.84662 8.08653 2.30802 9.98555 2.30802V10.308C12.5048 10.308 14.5479 8.2649 14.5479 5.74564H6.54793ZM12.1646 8.80767L13.8119 12.7922L21.205 9.73572L19.5577 5.75118L12.1646 8.80767ZM17.5085 7.26396H14.2139V15.264H17.5085V7.26396ZM17.9104 12.7922L19.5577 8.80767L12.1646 5.75118L10.5173 9.73572L17.9104 12.7922ZM15.8612 10.8169C16.3709 10.8169 16.7789 11.1755 16.8738 11.6473L9.0308 13.2244C9.67114 16.4089 12.4804 18.8169 15.8612 18.8169V10.8169ZM12.9523 16.4358H18.77V8.43584H12.9523V16.4358ZM14.8485 11.6473C14.9434 11.1754 15.3514 10.8169 15.8612 10.8169V18.8169C19.2418 18.8169 22.0512 16.409 22.6915 13.2244L14.8485 11.6473Z" fill="#5D6C7B" mask="url(#path-1-inside-1_5_18134)"/>
</svg>
