<svg width="35" height="35" viewBox="0 0 35 35" fill="none" xmlns="http://www.w3.org/2000/svg">
<g filter="url(#filter0_b_5_18138)">
<circle cx="17.5" cy="17.5" r="17.5" transform="matrix(-1 0 0 1 35 0)" fill="white" fill-opacity="0.2"/>
</g>
<mask id="path-2-inside-1_5_18138" fill="white">
<path d="M27.4141 19.264H26.7766L24.7349 14.3256C25.0208 14.2867 25.2413 14.0422 25.2413 13.7456C25.2413 13.422 24.979 13.1597 24.6554 13.1597H19.6177C19.3769 12.4909 18.7363 12.0114 17.9856 12.0114C17.2349 12.0114 16.5942 12.491 16.3534 13.1597H11.3446C11.0211 13.1597 10.7587 13.422 10.7587 13.7456C10.7587 14.0422 10.9793 14.2867 11.2651 14.3256L9.22344 19.264H8.58594C8.26234 19.264 8 19.5263 8 19.8499C8 22.132 9.85668 23.9887 12.1388 23.9887C14.421 23.9887 16.2777 22.132 16.2777 19.8499C16.2777 19.5263 16.0153 19.264 15.6917 19.264H15.0542L13.015 14.3316H16.3534C16.5942 15.0004 17.2348 15.4799 17.9856 15.4799C18.7363 15.4799 19.3769 15.0004 19.6177 14.3316H22.985L20.9459 19.264H20.3083C19.9847 19.264 19.7224 19.5263 19.7224 19.8499C19.7224 22.132 21.5791 23.9887 23.8612 23.9887C26.1434 23.9887 28 22.132 28 19.8499C28 19.5263 27.7377 19.264 27.4141 19.264ZM12.1388 22.8169C10.7033 22.8169 9.5027 21.7922 9.22996 20.4358H15.0477C14.775 21.7922 13.5743 22.8169 12.1388 22.8169ZM13.7861 19.264H10.4915L12.1388 15.2794L13.7861 19.264ZM17.9855 14.308C17.6754 14.308 17.4232 14.0558 17.4232 13.7456C17.4232 13.4355 17.6754 13.1833 17.9855 13.1833C18.2956 13.1833 18.5479 13.4355 18.5479 13.7456C18.5479 14.0558 18.2957 14.308 17.9855 14.308ZM23.8612 15.2794L25.5085 19.264H22.2139L23.8612 15.2794ZM23.8612 22.8169C22.4257 22.8169 21.225 21.7922 20.9523 20.4358H26.77C26.4973 21.7922 25.2966 22.8169 23.8612 22.8169Z"/>
</mask>
<path d="M27.4141 19.264H26.7766L24.7349 14.3256C25.0208 14.2867 25.2413 14.0422 25.2413 13.7456C25.2413 13.422 24.979 13.1597 24.6554 13.1597H19.6177C19.3769 12.4909 18.7363 12.0114 17.9856 12.0114C17.2349 12.0114 16.5942 12.491 16.3534 13.1597H11.3446C11.0211 13.1597 10.7587 13.422 10.7587 13.7456C10.7587 14.0422 10.9793 14.2867 11.2651 14.3256L9.22344 19.264H8.58594C8.26234 19.264 8 19.5263 8 19.8499C8 22.132 9.85668 23.9887 12.1388 23.9887C14.421 23.9887 16.2777 22.132 16.2777 19.8499C16.2777 19.5263 16.0153 19.264 15.6917 19.264H15.0542L13.015 14.3316H16.3534C16.5942 15.0004 17.2348 15.4799 17.9856 15.4799C18.7363 15.4799 19.3769 15.0004 19.6177 14.3316H22.985L20.9459 19.264H20.3083C19.9847 19.264 19.7224 19.5263 19.7224 19.8499C19.7224 22.132 21.5791 23.9887 23.8612 23.9887C26.1434 23.9887 28 22.132 28 19.8499C28 19.5263 27.7377 19.264 27.4141 19.264ZM12.1388 22.8169C10.7033 22.8169 9.5027 21.7922 9.22996 20.4358H15.0477C14.775 21.7922 13.5743 22.8169 12.1388 22.8169ZM13.7861 19.264H10.4915L12.1388 15.2794L13.7861 19.264ZM17.9855 14.308C17.6754 14.308 17.4232 14.0558 17.4232 13.7456C17.4232 13.4355 17.6754 13.1833 17.9855 13.1833C18.2956 13.1833 18.5479 13.4355 18.5479 13.7456C18.5479 14.0558 18.2957 14.308 17.9855 14.308ZM23.8612 15.2794L25.5085 19.264H22.2139L23.8612 15.2794ZM23.8612 22.8169C22.4257 22.8169 21.225 21.7922 20.9523 20.4358H26.77C26.4973 21.7922 25.2966 22.8169 23.8612 22.8169Z" fill="#6F73EE"/>
<path d="M26.7766 19.264L23.08 20.7922L24.1019 23.264H26.7766V19.264ZM24.7349 14.3256L24.1956 10.3621L19.0571 11.0614L21.0384 15.8538L24.7349 14.3256ZM19.6177 13.1597L15.8543 14.5149L16.8067 17.1597H19.6177V13.1597ZM16.3534 13.1597V17.1597H19.1644L20.1168 14.5149L16.3534 13.1597ZM11.2651 14.3256L14.9617 15.8538L16.943 11.0615L11.8046 10.3621L11.2651 14.3256ZM9.22344 19.264V23.264H11.8981L12.92 20.7922L9.22344 19.264ZM15.0542 19.264L11.3576 20.7922L12.3795 23.264H15.0542V19.264ZM13.015 14.3316V10.3316H7.03301L9.31848 15.8598L13.015 14.3316ZM16.3534 14.3316L20.1168 12.9764L19.1645 10.3316H16.3534V14.3316ZM19.6177 14.3316V10.3316H16.8067L15.8543 12.9764L19.6177 14.3316ZM22.985 14.3316L26.6816 15.8598L28.967 10.3316H22.985V14.3316ZM20.9459 19.264V23.264H23.6205L24.6424 20.7922L20.9459 19.264ZM9.22996 20.4358V16.4358H4.34559L5.30845 21.2244L9.22996 20.4358ZM15.0477 20.4358L18.9692 21.2244L19.9321 16.4358H15.0477V20.4358ZM13.7861 19.264V23.264H19.7682L17.4827 17.7357L13.7861 19.264ZM10.4915 19.264L6.79498 17.7357L4.50946 23.264H10.4915V19.264ZM12.1388 15.2794L15.8354 13.7512L12.1388 4.80991L8.44228 13.7512L12.1388 15.2794ZM23.8612 15.2794L27.5577 13.7512L23.8612 4.80991L20.1646 13.7512L23.8612 15.2794ZM25.5085 19.264V23.264H31.4905L29.205 17.7357L25.5085 19.264ZM22.2139 19.264L18.5173 17.7357L16.2318 23.264H22.2139V19.264ZM20.9523 20.4358V16.4358H16.0679L17.0308 21.2244L20.9523 20.4358ZM26.77 20.4358L30.6915 21.2244L31.6544 16.4358H26.77V20.4358ZM27.4141 15.264H26.7766V23.264H27.4141V15.264ZM30.4731 17.7357L28.4315 12.7973L21.0384 15.8538L23.08 20.7922L30.4731 17.7357ZM25.2743 18.289C27.5083 17.985 29.2413 16.0774 29.2413 13.7456H21.2413C21.2413 12.007 22.5334 10.5883 24.1956 10.3621L25.2743 18.289ZM29.2413 13.7456C29.2413 11.2129 27.1881 9.1597 24.6554 9.1597V17.1597C22.7698 17.1597 21.2413 15.6312 21.2413 13.7456H29.2413ZM24.6554 9.1597H19.6177V17.1597H24.6554V9.1597ZM23.3812 11.8045C22.5889 9.60417 20.4809 8.01138 17.9856 8.01138V16.0114C16.9916 16.0114 16.165 15.3777 15.8543 14.5149L23.3812 11.8045ZM17.9856 8.01138C15.4902 8.01138 13.3823 9.6042 12.59 11.8045L20.1168 14.5149C19.8061 15.3777 18.9795 16.0114 17.9856 16.0114V8.01138ZM16.3534 9.1597H11.3446V17.1597H16.3534V9.1597ZM11.3446 9.1597C8.81192 9.1597 6.75871 11.2129 6.75871 13.7456H14.7587C14.7587 15.6312 13.2302 17.1597 11.3446 17.1597V9.1597ZM6.75871 13.7456C6.75871 16.0776 8.49204 17.985 10.7257 18.289L11.8046 10.3621C13.4665 10.5883 14.7587 12.0068 14.7587 13.7456H6.75871ZM7.56858 12.7973L5.5269 17.7357L12.92 20.7922L14.9617 15.8538L7.56858 12.7973ZM9.22344 15.264H8.58594V23.264H9.22344V15.264ZM8.58594 15.264C6.0532 15.264 4 17.3172 4 19.8499H12C12 21.7354 10.4715 23.264 8.58594 23.264V15.264ZM4 19.8499C4 24.3412 7.64754 27.9887 12.1388 27.9887V19.9887C12.1151 19.9887 12.1011 19.9847 12.0898 19.9799C12.0758 19.974 12.0586 19.9633 12.042 19.9467C12.0254 19.9301 12.0148 19.9129 12.0088 19.8989C12.004 19.8876 12 19.8736 12 19.8499H4ZM12.1388 27.9887C16.6301 27.9887 20.2777 24.3412 20.2777 19.8499H12.2777C12.2777 19.8736 12.2736 19.8876 12.2688 19.8989C12.2629 19.9129 12.2522 19.9301 12.2356 19.9467C12.219 19.9633 12.2018 19.974 12.1878 19.9799C12.1765 19.9847 12.1625 19.9887 12.1388 19.9887V27.9887ZM20.2777 19.8499C20.2777 17.3172 18.2245 15.264 15.6917 15.264V23.264C13.8062 23.264 12.2777 21.7354 12.2777 19.8499H20.2777ZM15.6917 15.264H15.0542V23.264H15.6917V15.264ZM18.7507 17.7357L16.7116 12.8034L9.31848 15.8598L11.3576 20.7922L18.7507 17.7357ZM13.015 18.3316H16.3534V10.3316H13.015V18.3316ZM12.5899 15.6867C13.3823 17.8872 15.4902 19.4799 17.9856 19.4799V11.4799C18.9795 11.4799 19.8061 12.1136 20.1168 12.9764L12.5899 15.6867ZM17.9856 19.4799C20.4809 19.4799 22.5889 17.8871 23.3812 15.6867L15.8543 12.9764C16.165 12.1136 16.9916 11.4799 17.9856 11.4799V19.4799ZM19.6177 18.3316H22.985V10.3316H19.6177V18.3316ZM19.2884 12.8034L17.2493 17.7357L24.6424 20.7922L26.6816 15.8598L19.2884 12.8034ZM20.9459 15.264H20.3083V23.264H20.9459V15.264ZM20.3083 15.264C17.7756 15.264 15.7224 17.3172 15.7224 19.8499H23.7224C23.7224 21.7354 22.1939 23.264 20.3083 23.264V15.264ZM15.7224 19.8499C15.7224 24.3412 19.3699 27.9887 23.8612 27.9887V19.9887C23.8375 19.9887 23.8235 19.9847 23.8122 19.9799C23.7982 19.974 23.781 19.9633 23.7644 19.9467C23.7478 19.9301 23.7371 19.9129 23.7312 19.8989C23.7264 19.8876 23.7224 19.8736 23.7224 19.8499H15.7224ZM23.8612 27.9887C28.3525 27.9887 32 24.3411 32 19.8499H24C24 19.8736 23.996 19.8876 23.9912 19.8989C23.9852 19.9129 23.9746 19.9301 23.958 19.9467C23.9414 19.9633 23.9242 19.974 23.9102 19.9799C23.8989 19.9847 23.8849 19.9887 23.8612 19.9887V27.9887ZM32 19.8499C32 17.3172 29.9468 15.264 27.4141 15.264V23.264C25.5285 23.264 24 21.7354 24 19.8499H32ZM12.1388 18.8169C12.6486 18.8169 13.0566 19.1755 13.1515 19.6473L5.30845 21.2244C5.9488 24.4089 8.75808 26.8169 12.1388 26.8169V18.8169ZM9.22996 24.4358H15.0477V16.4358H9.22996V24.4358ZM11.1262 19.6473C11.2211 19.1755 11.6291 18.8169 12.1388 18.8169V26.8169C15.5196 26.8169 18.3289 24.4089 18.9692 21.2244L11.1262 19.6473ZM13.7861 15.264H10.4915V23.264H13.7861V15.264ZM14.1881 20.7922L15.8354 16.8077L8.44228 13.7512L6.79498 17.7357L14.1881 20.7922ZM8.44228 16.8077L10.0896 20.7922L17.4827 17.7357L15.8354 13.7512L8.44228 16.8077ZM17.9855 10.308C19.8846 10.308 21.4232 11.8466 21.4232 13.7456H13.4232C13.4232 16.2649 15.4663 18.308 17.9855 18.308V10.308ZM21.4232 13.7456C21.4232 15.6447 19.8846 17.1833 17.9855 17.1833V9.18326C15.4663 9.18326 13.4232 11.2264 13.4232 13.7456H21.4232ZM17.9855 17.1833C16.0867 17.1833 14.5479 15.6448 14.5479 13.7456H22.5479C22.5479 11.2262 20.5046 9.18326 17.9855 9.18326V17.1833ZM14.5479 13.7456C14.5479 11.8466 16.0865 10.308 17.9855 10.308V18.308C20.5048 18.308 22.5479 16.2649 22.5479 13.7456H14.5479ZM20.1646 16.8077L21.8119 20.7922L29.205 17.7357L27.5577 13.7512L20.1646 16.8077ZM25.5085 15.264H22.2139V23.264H25.5085V15.264ZM25.9104 20.7922L27.5577 16.8077L20.1646 13.7512L18.5173 17.7357L25.9104 20.7922ZM23.8612 18.8169C24.3709 18.8169 24.7789 19.1755 24.8738 19.6473L17.0308 21.2244C17.6711 24.4089 20.4804 26.8169 23.8612 26.8169V18.8169ZM20.9523 24.4358H26.77V16.4358H20.9523V24.4358ZM22.8485 19.6473C22.9434 19.1754 23.3514 18.8169 23.8612 18.8169V26.8169C27.2418 26.8169 30.0512 24.409 30.6915 21.2244L22.8485 19.6473Z" fill="#6F73EE" mask="url(#path-2-inside-1_5_18138)"/>
<defs>
<filter id="filter0_b_5_18138" x="-5" y="-5" width="45" height="45" filterUnits="userSpaceOnUse" color-interpolation-filters="sRGB">
<feFlood flood-opacity="0" result="BackgroundImageFix"/>
<feGaussianBlur in="BackgroundImageFix" stdDeviation="2.5"/>
<feComposite in2="SourceAlpha" operator="in" result="effect1_backgroundBlur_5_18138"/>
<feBlend mode="normal" in="SourceGraphic" in2="effect1_backgroundBlur_5_18138" result="shape"/>
</filter>
</defs>
</svg>
