<svg width="152" height="45" viewBox="0 0 152 45" fill="none" xmlns="http://www.w3.org/2000/svg">
<g id="g13546">
<g id="g13548">
<path id="path13552" d="M145.747 44.8887H5.82114C2.74278 44.8887 0.224121 42.37 0.224121 39.2917V5.70957C0.224121 2.63121 2.74278 0.112553 5.82114 0.112553H145.747C148.825 0.112553 151.344 2.63121 151.344 5.70957V39.2917C151.344 42.37 148.825 44.8887 145.747 44.8887Z" fill="white"/>
<path id="path13556" d="M119.929 33.6949H122.017V19.701H119.929V33.6949ZM138.742 24.7419L136.348 30.809H136.276L133.791 24.7419H131.541L135.268 33.2217L133.143 37.9386H135.323L141.065 24.7419H138.742ZM126.897 32.1055C126.212 32.1055 125.258 31.7635 125.258 30.917C125.258 29.8369 126.447 29.4228 127.472 29.4228C128.391 29.4228 128.822 29.6208 129.381 29.8912C129.219 31.1872 128.103 32.1055 126.897 32.1055ZM127.149 24.4358C125.637 24.4358 124.07 25.1021 123.422 26.5784L125.276 27.3524C125.672 26.5784 126.41 26.3261 127.185 26.3261C128.265 26.3261 129.363 26.9746 129.381 28.1268V28.2706C129.003 28.0546 128.193 27.7306 127.203 27.7306C125.204 27.7306 123.169 28.8285 123.169 30.8811C123.169 32.7535 124.808 33.9599 126.644 33.9599C128.049 33.9599 128.822 33.3298 129.309 32.5917H129.381V33.6717H131.397V28.3064C131.397 25.8224 129.543 24.4358 127.149 24.4358ZM114.24 26.4454H111.269V21.6487H114.24C115.801 21.6487 116.688 22.9416 116.688 24.047C116.688 25.1315 115.801 26.4454 114.24 26.4454ZM114.186 19.701H109.181V33.6949H111.269V28.3931H114.186C116.501 28.3931 118.777 26.717 118.777 24.047C118.777 21.3771 116.501 19.701 114.186 19.701ZM86.894 32.108C85.4509 32.108 84.2428 30.8999 84.2428 29.2405C84.2428 27.5636 85.4509 26.3371 86.894 26.3371C88.3186 26.3371 89.4367 27.5636 89.4367 29.2405C89.4367 30.8999 88.3186 32.108 86.894 32.108ZM89.2924 25.5255H89.2202C88.7515 24.9666 87.8494 24.4616 86.7134 24.4616C84.3329 24.4616 82.151 26.5534 82.151 29.2405C82.151 31.9096 84.3329 33.9835 86.7134 33.9835C87.8494 33.9835 88.7515 33.4784 89.2202 32.9017H89.2924V33.5869C89.2924 35.4086 88.3186 36.3824 86.7497 36.3824C85.4693 36.3824 84.6758 35.4623 84.3508 34.687L82.5296 35.4444C83.0526 36.7068 84.4414 38.2578 86.7497 38.2578C89.2023 38.2578 91.2762 36.8148 91.2762 33.2983V24.7502H89.2924V25.5255ZM92.7188 33.6949H94.8107V19.7006H92.7188V33.6949ZM97.8947 29.0783C97.8405 27.2386 99.3193 26.3011 100.383 26.3011C101.213 26.3011 101.916 26.7156 102.15 27.3113L97.8947 29.0783ZM104.387 27.4914C103.991 26.4271 102.782 24.4616 100.311 24.4616C97.8584 24.4616 95.8208 26.3912 95.8208 29.2226C95.8208 31.8917 97.8405 33.9835 100.545 33.9835C102.728 33.9835 103.991 32.6489 104.513 31.8736L102.89 30.7914C102.35 31.5851 101.61 32.108 100.545 32.108C99.4815 32.108 98.7243 31.621 98.2371 30.6655L104.603 28.0323L104.387 27.4914ZM53.6687 25.9224V27.9422H58.5018C58.3575 29.0783 57.9788 29.9077 57.4016 30.4849C56.6985 31.1884 55.5984 31.9637 53.6687 31.9637C50.693 31.9637 48.3668 29.5653 48.3668 26.5897C48.3668 23.6141 50.693 21.2153 53.6687 21.2153C55.2739 21.2153 56.4458 21.8467 57.3115 22.6583L58.7362 21.2337C57.528 20.0793 55.9228 19.1956 53.6687 19.1956C49.5929 19.1956 46.1665 22.514 46.1665 26.5897C46.1665 30.6655 49.5929 33.9835 53.6687 33.9835C55.869 33.9835 57.528 33.2625 58.8263 31.9096C60.1608 30.575 60.5758 28.6996 60.5758 27.1849C60.5758 26.7156 60.5399 26.2832 60.4673 25.9224H53.6687ZM66.0705 32.108C64.6275 32.108 63.383 30.9178 63.383 29.2226C63.383 27.5093 64.6275 26.3371 66.0705 26.3371C67.513 26.3371 68.7574 27.5093 68.7574 29.2226C68.7574 30.9178 67.513 32.108 66.0705 32.108ZM66.0705 24.4616C63.4372 24.4616 61.2911 26.4633 61.2911 29.2226C61.2911 31.9637 63.4372 33.9835 66.0705 33.9835C68.7032 33.9835 70.8493 31.9637 70.8493 29.2226C70.8493 26.4633 68.7032 24.4616 66.0705 24.4616ZM76.4957 32.108C75.0533 32.108 73.8087 30.9178 73.8087 29.2226C73.8087 27.5093 75.0533 26.3371 76.4957 26.3371C77.9383 26.3371 79.1827 27.5093 79.1827 29.2226C79.1827 30.9178 77.9383 32.108 76.4957 32.108ZM76.4957 24.4616C73.8626 24.4616 71.7169 26.4633 71.7169 29.2226C71.7169 31.9637 73.8626 33.9835 76.4957 33.9835C79.1286 33.9835 81.2747 31.9637 81.2747 29.2226C81.2747 26.4633 79.1286 24.4616 76.4957 24.4616Z" fill="#282739"/>
<g id="g13558">
<g id="g13560">
<path id="path13580" d="M11.9884 36.3691L11.9053 36.2896C11.5795 35.9449 11.3872 35.4097 11.3872 34.7167V34.8798V10.1231C11.3872 10.1208 11.3872 10.1191 11.3872 10.1174C11.3872 10.1195 11.3872 10.1213 11.3872 10.1235V10.2871C11.3872 9.53661 11.6114 8.97131 11.9871 8.63235L25.8563 22.5012L11.9884 36.3691ZM11.3872 10.116C11.3872 10.0543 11.3889 9.99444 11.392 9.93545C11.3889 9.994 11.3872 10.0543 11.3872 10.116ZM11.392 9.93277C11.392 9.93198 11.392 9.93109 11.3924 9.93019C11.392 9.93109 11.392 9.93198 11.392 9.93277ZM11.3924 9.92493C11.3924 9.92448 11.3924 9.92403 11.3924 9.92359C11.3924 9.92403 11.3924 9.92448 11.3924 9.92493Z" fill="url(#paint0_linear_469_6425)"/>
</g>
</g>
<g id="g13582">
<g id="g13584">
<path id="path13600" d="M30.4793 27.291L30.5847 27.2311L36.0619 24.1191C36.5841 23.8222 36.9321 23.4623 37.1057 23.0815C36.9325 23.4623 36.5844 23.8227 36.0619 24.1195L30.5847 27.2316L30.4793 27.291ZM30.4806 27.127L25.8569 22.5025L30.4802 17.8789L36.0619 21.0499C36.7707 21.4527 37.1686 21.9717 37.2351 22.5021C37.2351 22.5025 37.2351 22.5034 37.2351 22.5042C37.1686 23.0334 36.7707 23.5529 36.0619 23.9555L30.4806 27.127Z" fill="url(#paint1_linear_469_6425)"/>
</g>
</g>
<g id="g13602">
<g id="g13604">
<path id="path13616" d="M12.9774 36.8984C12.5899 36.8984 12.2519 36.7725 11.9883 36.5346L11.9887 36.5342C12.2523 36.7721 12.5908 36.8984 12.9783 36.8984C13.0119 36.8984 13.046 36.8975 13.0806 36.8959C13.0455 36.8975 13.011 36.8984 12.9774 36.8984ZM12.9778 36.7344C12.5904 36.7349 12.2523 36.6085 11.9887 36.3706V36.3703L25.8566 22.5024L30.4802 27.1268L14.2319 36.3589C13.7823 36.6138 13.3564 36.7344 12.9778 36.7344ZM11.9848 36.5316C11.9603 36.5093 11.9362 36.4857 11.9126 36.4612L11.9848 36.5316Z" fill="url(#paint2_linear_469_6425)"/>
</g>
</g>
<g id="g13618">
<g id="g13620">
<path id="path13638" d="M25.857 22.502L11.9878 8.63311C12.2514 8.39569 12.589 8.26975 12.976 8.26975C13.3556 8.26975 13.7819 8.39087 14.2323 8.64621L30.4802 17.8783L25.857 22.502ZM30.5848 17.7738L14.2323 8.48277C13.7819 8.22733 13.3556 8.10621 12.976 8.10621C12.9742 8.10621 12.973 8.10621 12.9712 8.10621C12.9734 8.10621 12.9751 8.10621 12.9778 8.10621C13.3565 8.10621 13.7823 8.22688 14.2323 8.48233L30.5848 17.7738Z" fill="url(#paint3_linear_469_6425)"/>
</g>
</g>
<path id="path13640" d="M13.0808 36.8945C13.4327 36.8744 13.8224 36.7533 14.2321 36.5211L30.4791 27.2895L14.2321 36.5211C13.8227 36.7537 13.4327 36.8744 13.0808 36.8945ZM11.9885 36.5333L11.985 36.5303C11.9862 36.5312 11.9876 36.5324 11.9885 36.5333ZM11.9128 36.4599L11.9058 36.4529V36.4525C11.9084 36.4551 11.9106 36.4576 11.9128 36.4599Z" fill="white"/>
<g id="g13642">
<g id="g13644">
<path id="path13660" d="M30.4785 27.291L30.584 27.2311L30.4785 27.291Z" fill="url(#paint4_linear_469_6425)"/>
</g>
</g>
<g id="g13662">
<g id="g13664">
<path id="path13676" d="M12.9785 36.8984C12.5911 36.8984 12.2526 36.7721 11.9889 36.5342L11.9885 36.5346C11.9876 36.5337 11.9862 36.5325 11.985 36.5316L11.9128 36.4612C11.9106 36.459 11.9084 36.4564 11.9058 36.4538L11.9889 36.3706C12.2526 36.6085 12.5906 36.7349 12.978 36.7344C13.3566 36.7344 13.7826 36.6138 14.2321 36.3589L30.4805 27.1268L30.5846 27.2309L30.4791 27.2908L14.2321 36.5224C13.8224 36.7546 13.4327 36.8757 13.0808 36.8959C13.0462 36.8975 13.0121 36.8984 12.9785 36.8984Z" fill="url(#paint5_linear_469_6425)"/>
</g>
</g>
<path id="path13678" d="M11.9058 36.4531C11.58 36.1085 11.3877 35.5733 11.3877 34.8803V34.8798C11.3877 35.5733 11.58 36.108 11.9058 36.4527V36.4531Z" fill="white"/>
<g id="g13680">
<g id="g13682">
<path id="path13702" d="M11.9053 36.4531C11.5795 36.1085 11.3872 35.5737 11.3872 34.8803V34.7172C11.3872 35.4102 11.5795 35.9454 11.9053 36.29L11.9884 36.3696L11.9053 36.4531Z" fill="url(#paint6_linear_469_6425)"/>
</g>
</g>
<g id="g13704">
<g id="g13706">
<path id="path13718" d="M11.9058 36.4531L11.9889 36.3696V36.37L11.9058 36.4531Z" fill="url(#paint7_linear_469_6425)"/>
</g>
</g>
<path id="path13720" d="M37.1055 23.0801C37.1916 22.8911 37.2349 22.697 37.2349 22.5028C37.2349 22.5025 37.2349 22.502 37.2349 22.502C37.2349 22.6966 37.1916 22.8907 37.1055 23.0801Z" fill="white"/>
<g id="g13722">
<g id="g13724">
<path id="path13740" d="M30.5846 27.2305L30.4805 27.1264L36.0617 23.9549C36.7705 23.5522 37.1685 23.0327 37.235 22.5036C37.235 22.6978 37.1916 22.8919 37.1056 23.0808C36.9319 23.4617 36.5839 23.8215 36.0617 24.1184L30.5846 27.2305Z" fill="url(#paint8_linear_469_6425)"/>
</g>
</g>
<path id="path13742" d="M37.2348 22.502V22.5015C37.2344 21.9159 36.843 21.3305 36.0616 20.8862L30.5844 17.7742H30.584L30.5844 17.7738L36.0616 20.8858C36.8439 21.3301 37.2357 21.9164 37.2348 22.502Z" fill="#282739"/>
<g id="g13744">
<g id="g13746">
<path id="path13762" d="M37.2354 22.502C37.1689 21.9716 36.7709 21.4525 36.0621 21.0498L30.4805 17.8787L30.5846 17.7746H30.585L36.0621 20.8867C36.8436 21.3309 37.2349 21.9164 37.2354 22.502Z" fill="url(#paint9_linear_469_6425)"/>
</g>
</g>
<path id="path13764" d="M11.3877 10.1172C11.3877 10.1167 11.3877 10.1163 11.3877 10.1158C11.3877 10.1163 11.3877 10.1167 11.3877 10.1172ZM11.3925 9.93528C11.3925 9.93439 11.3925 9.9335 11.3925 9.9326C11.3925 9.9335 11.3925 9.93439 11.3925 9.93528ZM11.3928 9.93002C11.3928 9.92823 11.3928 9.92655 11.3928 9.92476C11.3928 9.92655 11.3928 9.92823 11.3928 9.93002ZM11.3928 9.92342C11.4577 8.77346 12.083 8.10921 12.9675 8.10529C12.584 8.10753 12.25 8.23346 11.9885 8.46909V8.46865L11.9853 8.47178C11.9578 8.49663 11.9316 8.52294 11.9058 8.55002C11.6119 8.86088 11.4265 9.32656 11.3928 9.92342Z" fill="#282739"/>
<g id="g13766">
<g id="g13768">
<path id="path13788" d="M11.3872 10.2871V10.1236C11.3872 10.1213 11.3872 10.1195 11.3872 10.1174C11.3872 10.117 11.3872 10.1165 11.3872 10.1161C11.3872 10.0544 11.3889 9.99405 11.392 9.93551C11.392 9.93461 11.392 9.93372 11.392 9.93282C11.392 9.93204 11.392 9.93114 11.3924 9.93024C11.3924 9.92845 11.3924 9.92677 11.3924 9.92498C11.3924 9.92454 11.3924 9.92409 11.3924 9.92364C11.426 9.32677 11.6114 8.8611 11.9053 8.55024L11.9871 8.63241C11.6114 8.97136 11.3872 9.53666 11.3872 10.2871ZM11.9849 8.472L11.988 8.46886C11.9871 8.47021 11.9858 8.4711 11.9849 8.472Z" fill="url(#paint10_linear_469_6425)"/>
</g>
</g>
<g id="g13792">
<g id="g13794">
<path id="path13812" d="M30.48 17.8789L14.2321 8.64685C13.7817 8.39152 13.3554 8.2704 12.9758 8.2704C12.5888 8.2704 12.2512 8.39633 11.9876 8.63376L11.9058 8.55159C11.9316 8.5245 11.9578 8.49819 11.9854 8.47334C11.9862 8.47245 11.9876 8.47155 11.9885 8.47066C12.25 8.23502 12.584 8.10909 12.9675 8.10685C12.9684 8.10685 12.9696 8.10685 12.971 8.10685C12.9728 8.10685 12.974 8.10685 12.9758 8.10685C13.3554 8.10685 13.7817 8.22797 14.2321 8.48342L30.5846 17.7745L30.5841 17.7748L30.48 17.8789Z" fill="url(#paint11_linear_469_6425)"/>
</g>
</g>
<path id="path13814" d="M48.914 11.269C48.9271 12.3316 48.7142 13.1886 48.2769 13.8393H51.6722V8.77309H48.914V11.269ZM47.3661 16.0898H46.541V13.8393H47.1978C47.7793 13.3381 48.0635 12.482 48.0518 11.269V7.94798H52.5359V13.8393H53.2859V16.0898H52.4603V14.6644H47.3661V16.0898Z" fill="#282739"/>
<path id="path13816" d="M48.9142 11.2684L48.8022 11.2698L48.8031 11.3602C48.8027 12.3655 48.5928 13.1684 48.1839 13.7761L48.0668 13.9506H51.7843V8.66054H48.8022V11.2693V11.2698L48.9142 11.2684H49.0261V8.88442H51.5604V13.7267H48.277V13.8387L48.3698 13.9008C48.8101 13.2457 49.027 12.3956 49.027 11.3602L49.0261 11.2671L48.9142 11.2684H49.0261H48.9142ZM47.3663 16.0892V15.9773H46.6531V13.9506H47.1979H47.2394L47.2709 13.9235C47.876 13.4014 48.1643 12.5317 48.1643 11.3418L48.1638 11.2675V11.2684V8.05931H52.4241V13.9506H53.1741V15.9773H52.5724V14.6638V14.5518H47.2543V16.0892H47.3663V15.9773V16.0892H47.4782V14.7757H52.3485V16.0892V16.2012H53.286H53.3979V13.7267H52.6479V7.83542H47.9399V11.2689V11.2693L47.9404 11.3418C47.9399 12.5002 47.6592 13.2948 47.1248 13.7534L47.1979 13.8387V13.7267H46.5411H46.4292V16.2012H47.3663H47.4782V16.0892H47.3663Z" fill="#282739"/>
<path id="path13818" d="M55.7291 13.2342C56.2267 13.7375 56.8346 13.9889 57.5539 13.9889C58.2731 13.9889 58.8818 13.7375 59.3781 13.2342C59.8757 12.7309 60.1249 12.0876 60.1249 11.3062C60.1249 10.5249 59.8757 9.88158 59.3781 9.3783C58.8818 8.87501 58.2731 8.62359 57.5539 8.62359C56.8346 8.62359 56.2267 8.87501 55.7291 9.3783C55.2328 9.88158 54.9836 10.5249 54.9836 11.3062C54.9836 12.0876 55.2328 12.7309 55.7291 13.2342ZM60.0166 13.7965C59.3562 14.4755 58.5355 14.8145 57.5539 14.8145C56.5722 14.8145 55.751 14.4755 55.092 13.7965C54.4318 13.1182 54.1025 12.288 54.1025 11.3062C54.1025 10.3245 54.4318 9.49415 55.092 8.81602C55.751 8.13688 56.5722 7.79759 57.5539 7.79759C58.5298 7.79759 59.3488 8.13867 60.0121 8.82038C60.6746 9.5021 61.006 10.3307 61.006 11.3062C61.006 12.288 60.6759 13.1182 60.0166 13.7965Z" fill="#282739"/>
<path id="path13820" d="M55.7288 13.2336L55.6492 13.3123C56.1647 13.8357 56.8079 14.1016 57.5535 14.1002C58.2986 14.1016 58.9431 13.8357 59.4573 13.3123C59.9764 12.7884 60.2374 12.1106 60.2365 11.3056C60.2374 10.5007 59.9764 9.82287 59.4573 9.29899C58.9431 8.77556 58.2986 8.5097 57.5535 8.51104C56.8079 8.5097 56.1647 8.77556 55.6492 9.29899C55.1315 9.82287 54.8704 10.5007 54.8713 11.3056C54.8704 12.1106 55.1315 12.7884 55.6492 13.3123L55.7288 13.2336L55.8088 13.1549C55.3339 12.6716 55.0964 12.0638 55.0952 11.3056C55.0964 10.5475 55.3339 9.93962 55.8088 9.45638H55.8084C56.2876 8.97324 56.8599 8.73627 57.5535 8.73492C58.2465 8.73627 58.8202 8.97324 59.2981 9.45638L59.2999 9.45817L59.2981 9.45638C59.7743 9.93962 60.0114 10.5475 60.0126 11.3056C60.0114 12.0638 59.7743 12.6716 59.2981 13.1549C58.8202 13.638 58.2465 13.875 57.5535 13.8763C56.8599 13.875 56.2876 13.638 55.8084 13.1549L55.7288 13.2336ZM60.0162 13.7959L59.9362 13.7181C59.2946 14.3757 58.5094 14.7006 57.5535 14.7019C56.5972 14.7006 55.8123 14.3757 55.1717 13.7181C54.5315 13.0582 54.2153 12.2624 54.2141 11.3056C54.2153 10.3489 54.5315 9.55309 55.1717 8.89321C55.8123 8.23556 56.5972 7.91026 57.5535 7.90891C58.5037 7.91026 59.2868 8.2369 59.9318 8.89802C60.5746 9.56093 60.8925 10.3555 60.8937 11.3056C60.8925 12.2624 60.5755 13.0582 59.9362 13.7181L60.0162 13.7959L60.0966 13.8737C60.7753 13.1767 61.1185 12.3122 61.1176 11.3056C61.1185 10.3048 60.7744 9.44205 60.0922 8.74197C59.41 8.03921 58.5557 7.6838 57.5535 7.68503C56.5461 7.6838 55.6889 8.03753 55.0112 8.73761V8.73716C54.3312 9.43455 53.9893 10.2991 53.9902 11.3056C53.9893 12.3122 54.3312 13.1767 55.0112 13.8741V13.8737C55.6889 14.5737 56.5461 14.9267 57.5535 14.9258C58.5605 14.9267 59.4175 14.5737 60.0966 13.8737L60.0162 13.7959Z" fill="#282739"/>
<path id="path13822" d="M65.3502 14.8145C64.362 14.8145 63.5335 14.48 62.8644 13.8105C62.1941 13.1415 61.8608 12.3067 61.8608 11.3062C61.8608 10.3057 62.1941 9.47098 62.8644 8.80203C63.5335 8.13251 64.362 7.79759 65.3502 7.79759C66.3625 7.79759 67.1855 8.16363 67.8173 8.89516L67.2161 9.47714C66.7605 8.90781 66.1373 8.62359 65.3502 8.62359C64.6178 8.62359 63.9999 8.87065 63.4971 9.36475C62.9933 9.85886 62.7419 10.5061 62.7419 11.3062C62.7419 12.1064 62.9933 12.7541 63.4971 13.2477C63.9999 13.7418 64.6178 13.9889 65.3502 13.9889C66.157 13.9889 66.8444 13.6639 67.4141 13.0138L68.0141 13.6137C67.7072 13.9827 67.3232 14.2752 66.8596 14.4904C66.3974 14.7064 65.8934 14.8145 65.3502 14.8145Z" fill="#282739"/>
<path id="path13824" d="M65.3499 14.8138V14.7019C64.3866 14.7006 63.593 14.3792 62.9432 13.7307C62.2938 13.0813 61.9733 12.2812 61.9724 11.3056C61.9733 10.3301 62.2938 9.52992 62.9432 8.88056C63.593 8.23164 64.3866 7.91026 65.3499 7.90892C66.3355 7.91071 67.1191 8.25962 67.7321 8.96754L67.8169 8.89455L67.7391 8.81406L67.1379 9.39649L67.2157 9.47653L67.3031 9.40656C66.8283 8.81104 66.1632 8.50936 65.3499 8.51104C64.5921 8.51015 63.9401 8.77041 63.4185 9.2841C62.8916 9.7997 62.6283 10.4826 62.6296 11.3056C62.6283 12.1286 62.8916 12.8125 63.4185 13.3272C63.9401 13.8409 64.5921 14.1011 65.3499 14.1002C66.1872 14.1016 66.9127 13.7578 67.4977 13.087L67.4137 13.0132L67.3346 13.0923L67.9346 13.6922L68.0137 13.6131L67.9275 13.5419C67.6311 13.8977 67.262 14.1794 66.812 14.3884C66.3647 14.5973 65.8786 14.7015 65.3499 14.7019V14.8138V14.9258C65.9078 14.9258 66.4291 14.8147 66.9065 14.5913C67.3841 14.37 67.782 14.067 68.0998 13.6848L68.165 13.6066L67.493 12.934L67.4081 12.8492L67.3294 12.9393C66.7758 13.5694 66.1261 13.875 65.3499 13.8763C64.6424 13.875 64.0595 13.6415 63.5754 13.1671H63.5751C63.0941 12.6948 62.8544 12.0831 62.8535 11.3056C62.8544 10.5282 63.0941 9.91735 63.5751 9.44418H63.5754C64.0595 8.96977 64.6424 8.73627 65.3499 8.73492C66.1103 8.73671 66.6914 9.00347 67.1283 9.54649L67.2052 9.64276L67.8947 8.97503L67.9708 8.90149L67.9018 8.82156C67.2515 8.06597 66.3888 7.6838 65.3499 7.68504C64.3363 7.68414 63.4726 8.03272 62.7849 8.72227C62.0935 9.41048 61.7472 10.2807 61.7485 11.3056C61.7472 12.3306 62.0935 13.2008 62.7849 13.8894C63.4726 14.5785 64.3363 14.9267 65.3499 14.9258V14.8138Z" fill="#282739"/>
<path id="path13826" d="M71.5045 14.6641H70.641V8.77275H68.7651V7.94764H73.3804V8.77275H71.5045V14.6641Z" fill="#282739"/>
<path id="path13828" d="M71.5047 14.6654V14.5535H70.7531V8.66216H68.8772V8.06093H73.2686V8.66216H71.3927V14.6654H71.5047V14.5535V14.6654H71.6166V8.88604H73.4925V7.94899V7.83705H68.6533V8.7741V8.88604H70.5292V14.7773H71.5047H71.6166V14.6654H71.5047Z" fill="#282739"/>
<path id="path13830" d="M75.2553 12.0369H77.4871L76.3896 9.0076H76.3524L75.2553 12.0369ZM73.3511 14.6641L75.8842 7.94764H76.8588L79.3915 14.6641H78.4352L77.7875 12.8437H74.9646L74.3078 14.6641H73.3511Z" fill="#282739"/>
<path id="path13832" d="M75.255 12.0383V12.1502H77.6465L76.4676 8.89701H76.3522H76.2735L75.0955 12.1502H75.255V12.0383L75.3605 12.0768L76.4576 9.04701L76.3522 9.00895V9.12089H76.3893V9.00895L76.284 9.04701L77.3273 11.9263H75.255V12.0383L75.3605 12.0768L75.255 12.0383ZM73.3508 14.6654L73.4557 14.7048L75.9613 8.06093H76.7807L79.2294 14.5535H78.5136L77.8664 12.7331H74.8856L74.2288 14.5535H73.3508V14.6654L73.4557 14.7048L73.3508 14.6654V14.7773H74.3076H74.3863L75.043 12.957H77.7086L78.3558 14.7773H79.3912H79.553L76.9359 7.83705H75.8839H75.8065L73.189 14.7773H73.3508V14.6654Z" fill="#282739"/>
<path id="path13834" d="M80.3672 14.6641V7.94764H85.2265V14.6641H84.363V8.77275H81.2299V14.6641H80.3672Z" fill="#282739"/>
<path id="path13836" d="M80.3673 14.6654H80.4793V8.06093H85.1147V14.5535H84.4751V8.66216H81.1181V14.5535H80.3673V14.6654H80.4793H80.3673V14.7773H81.23H81.342V8.88604H84.2512V14.7773H85.2266H85.3386V7.83705H80.2554V14.7773H80.3673V14.6654Z" fill="#282739"/>
<path id="path13838" d="M86.7656 14.6641V7.94764H87.6285V10.8271H90.9867V7.94764H91.8497V14.6641H90.9867V11.6338H87.6285V14.6641H86.7656Z" fill="#282739"/>
<path id="path13840" d="M86.7657 14.6654H86.8777V8.06093H87.5166L87.5162 10.9404H91.0987V8.06093H91.7379V14.5535H91.0983L91.0987 11.5232H87.5162V14.5535H86.7657V14.6654H86.8777H86.7657V14.7773H87.6286H87.7405V11.7471H90.8744V14.7773H91.8499H91.9618V7.83705H90.9868H90.8744V10.7165H87.7401L87.7405 7.83705H86.7657H86.6538V14.7773H86.7657V14.6654Z" fill="#282739"/>
<path id="path13842" d="M94.5929 13.2342C95.0906 13.7375 95.6979 13.9889 96.4172 13.9889C97.137 13.9889 97.7456 13.7375 98.2419 13.2342C98.7391 12.7309 98.9888 12.0876 98.9888 11.3062C98.9888 10.5249 98.7391 9.88158 98.2419 9.3783C97.7456 8.87501 97.137 8.62359 96.4172 8.62359C95.6979 8.62359 95.0906 8.87501 94.5929 9.3783C94.0967 9.88158 93.8474 10.5249 93.8474 11.3062C93.8474 12.0876 94.0967 12.7309 94.5929 13.2342ZM98.8803 13.7965C98.2201 14.4755 97.3994 14.8145 96.4172 14.8145C95.436 14.8145 94.6149 14.4755 93.9559 13.7965C93.2956 13.1182 92.9663 12.288 92.9663 11.3062C92.9663 10.3245 93.2956 9.49415 93.9559 8.81602C94.6149 8.13688 95.436 7.79759 96.4172 7.79759C97.3937 7.79759 98.2122 8.13867 98.876 8.82038C99.5384 9.5021 99.8699 10.3307 99.8699 11.3062C99.8699 12.288 99.5398 13.1182 98.8803 13.7965Z" fill="#282739"/>
<path id="path13844" d="M94.593 13.2336L94.5135 13.3123C95.029 13.8357 95.6723 14.1016 96.4173 14.1002C97.1629 14.1016 97.807 13.8357 98.3217 13.3123C98.8407 12.7884 99.1018 12.1106 99.1009 11.3056C99.1018 10.5007 98.8407 9.82287 98.3217 9.29899C97.807 8.77556 97.1629 8.5097 96.4173 8.51104C95.6723 8.5097 95.029 8.77556 94.5135 9.29899C93.9957 9.82287 93.7347 10.5007 93.7356 11.3056C93.7347 12.1106 93.9957 12.7884 94.5135 13.3123L94.593 13.2336L94.6726 13.1549C94.1978 12.6716 93.9604 12.0638 93.9595 11.3056C93.9604 10.5475 94.1978 9.93962 94.6726 9.45638C95.152 8.97324 95.7243 8.73627 96.4173 8.73492C97.1109 8.73627 97.6846 8.97324 98.1625 9.45638L98.1655 9.45996L98.1625 9.45638C98.6382 9.93962 98.8757 10.5475 98.877 11.3056C98.8757 12.0638 98.6382 12.6716 98.1625 13.1549C97.6846 13.638 97.1109 13.875 96.4173 13.8763C95.7243 13.875 95.152 13.638 94.6726 13.1549L94.593 13.2336ZM98.8805 13.7959L98.8 13.7181C98.1586 14.3757 97.3736 14.7006 96.4173 14.7019C95.4615 14.7006 94.6766 14.3757 94.036 13.7181L94.0329 13.7146L94.036 13.7181C93.3954 13.0582 93.0793 12.2624 93.0784 11.3056C93.0793 10.3489 93.3954 9.55309 94.036 8.89321C94.6766 8.23556 95.4615 7.91026 96.4173 7.90891C97.3676 7.91026 98.1507 8.2369 98.7961 8.89802C99.4388 9.56093 99.7567 10.3555 99.7581 11.3056C99.7567 12.2624 99.4397 13.0582 98.8 13.7181L98.8805 13.7959L98.961 13.8737C99.6395 13.1767 99.9829 12.3122 99.982 11.3056C99.9829 10.3048 99.6383 9.44205 98.9566 8.74197C98.2744 8.03921 97.4195 7.6838 96.4173 7.68503C95.4103 7.6838 94.5533 8.03753 93.8755 8.73761V8.73716C93.1956 9.43455 92.8536 10.2991 92.8545 11.3056C92.8536 12.3122 93.1956 13.1767 93.8755 13.8741V13.8737C94.5533 14.5737 95.4103 14.9267 96.4173 14.9258C97.4248 14.9267 98.2818 14.5737 98.961 13.8737L98.8805 13.7959Z" fill="#282739"/>
<path id="path13846" d="M103.398 14.6641V7.94764H104.26V10.8271H107.619V7.94764H108.483V14.6641H107.619V11.6338H104.26V14.6641H103.398Z" fill="#282739"/>
<path id="path13848" d="M103.399 14.6654H103.511V8.06093H104.149V10.9404H107.731V8.06093H108.371V14.5535H107.731V11.5232H104.149V14.5535H103.399V14.6654H103.511H103.399V14.7773H104.261H104.372V11.7471H107.507V14.7773H108.483H108.595V7.83705H107.619H107.507V10.7165H104.372V7.83705H103.399H103.287V14.7773H103.399V14.6654Z" fill="#282739"/>
<path id="path13850" d="M111.362 12.0369H113.594L112.497 9.0076H112.46L111.362 12.0369ZM109.458 14.6641L111.991 7.94764H112.966L115.499 14.6641H114.542L113.895 12.8437H111.071L110.415 14.6641H109.458Z" fill="#282739"/>
<path id="path13852" d="M111.362 12.0383V12.1502H113.754L112.575 8.89701H112.46H112.382L111.203 12.1502H111.362V12.0383L111.467 12.0768L112.565 9.04701L112.46 9.00895V9.12089H112.497V9.00895L112.392 9.04701L113.435 11.9263H111.362V12.0383L111.467 12.0768L111.362 12.0383ZM109.458 14.6654L109.563 14.7048L112.068 8.06093H112.889L115.337 14.5535H114.622L113.973 12.7331H110.992L110.335 14.5535H109.458V14.6654L109.563 14.7048L109.458 14.6654V14.7773H110.415H110.493L111.15 12.957H113.816L114.463 14.7773H115.499H115.66L113.043 7.83705H111.991H111.914L109.295 14.7773H109.458V14.6654Z" fill="#282739"/>
</g>
</g>
<defs>
<linearGradient id="paint0_linear_469_6425" x1="24.6265" y1="9.86191" x2="5.84012" y2="28.6483" gradientUnits="userSpaceOnUse">
<stop stop-color="#00A0FF"/>
<stop offset="0.00657445" stop-color="#00A1FF"/>
<stop offset="0.2601" stop-color="#00BEFF"/>
<stop offset="0.5122" stop-color="#00D2FF"/>
<stop offset="0.7604" stop-color="#00DFFF"/>
<stop offset="1" stop-color="#00E3FF"/>
</linearGradient>
<linearGradient id="paint1_linear_469_6425" x1="38.0987" y1="22.5032" x2="11.0125" y2="22.5032" gradientUnits="userSpaceOnUse">
<stop stop-color="#FFE000"/>
<stop offset="0.4087" stop-color="#FFBD00"/>
<stop offset="0.7754" stop-color="#FFA500"/>
<stop offset="1" stop-color="#FF9C00"/>
</linearGradient>
<linearGradient id="paint2_linear_469_6425" x1="28.0154" y1="25.0717" x2="2.53972" y2="50.5474" gradientUnits="userSpaceOnUse">
<stop stop-color="#FF3A44"/>
<stop offset="1" stop-color="#C31162"/>
</linearGradient>
<linearGradient id="paint3_linear_469_6425" x1="8.39305" y1="0.310239" x2="19.769" y2="11.6862" gradientUnits="userSpaceOnUse">
<stop stop-color="#32A071"/>
<stop offset="0.0685" stop-color="#2DA771"/>
<stop offset="0.4762" stop-color="#15CF74"/>
<stop offset="0.8009" stop-color="#06E775"/>
<stop offset="1" stop-color="#00F076"/>
</linearGradient>
<linearGradient id="paint4_linear_469_6425" x1="38.0981" y1="22.5033" x2="11.0114" y2="22.5033" gradientUnits="userSpaceOnUse">
<stop stop-color="#CCB300"/>
<stop offset="0.4087" stop-color="#CC9700"/>
<stop offset="0.7754" stop-color="#CC8400"/>
<stop offset="1" stop-color="#CC7D00"/>
</linearGradient>
<linearGradient id="paint5_linear_469_6425" x1="28.0156" y1="25.0717" x2="2.53993" y2="50.5474" gradientUnits="userSpaceOnUse">
<stop stop-color="#CC2E36"/>
<stop offset="1" stop-color="#9C0E4E"/>
</linearGradient>
<linearGradient id="paint6_linear_469_6425" x1="24.6265" y1="9.86238" x2="5.84015" y2="28.6488" gradientUnits="userSpaceOnUse">
<stop stop-color="#008DE0"/>
<stop offset="0.00657445" stop-color="#008DE0"/>
<stop offset="0.2601" stop-color="#00A7E0"/>
<stop offset="0.5122" stop-color="#00B8E0"/>
<stop offset="0.7604" stop-color="#00C4E0"/>
<stop offset="1" stop-color="#00C7E0"/>
</linearGradient>
<linearGradient id="paint7_linear_469_6425" x1="28.0161" y1="25.071" x2="2.54029" y2="50.5474" gradientUnits="userSpaceOnUse">
<stop stop-color="#E0333C"/>
<stop offset="1" stop-color="#AB0F56"/>
</linearGradient>
<linearGradient id="paint8_linear_469_6425" x1="38.0986" y1="22.5026" x2="11.0123" y2="22.5026" gradientUnits="userSpaceOnUse">
<stop stop-color="#E0C500"/>
<stop offset="0.4087" stop-color="#E0A600"/>
<stop offset="0.7754" stop-color="#E09100"/>
<stop offset="1" stop-color="#E08900"/>
</linearGradient>
<linearGradient id="paint9_linear_469_6425" x1="38.099" y1="22.5031" x2="11.0128" y2="22.5031" gradientUnits="userSpaceOnUse">
<stop stop-color="#FFE840"/>
<stop offset="0.4087" stop-color="#FFCE40"/>
<stop offset="0.7754" stop-color="#FFBC40"/>
<stop offset="1" stop-color="#FFB540"/>
</linearGradient>
<linearGradient id="paint10_linear_469_6425" x1="24.6265" y1="9.86196" x2="5.84013" y2="28.6484" gradientUnits="userSpaceOnUse">
<stop stop-color="#40B8FF"/>
<stop offset="0.00657445" stop-color="#40B9FF"/>
<stop offset="0.2601" stop-color="#40CEFF"/>
<stop offset="0.5122" stop-color="#40DDFF"/>
<stop offset="0.7604" stop-color="#40E7FF"/>
<stop offset="1" stop-color="#40EAFF"/>
</linearGradient>
<linearGradient id="paint11_linear_469_6425" x1="8.39285" y1="0.310881" x2="19.7688" y2="11.6868" gradientUnits="userSpaceOnUse">
<stop stop-color="#65B895"/>
<stop offset="0.0685" stop-color="#62BD95"/>
<stop offset="0.4762" stop-color="#50DB97"/>
<stop offset="0.8009" stop-color="#44ED98"/>
<stop offset="1" stop-color="#40F498"/>
</linearGradient>
</defs>
</svg>
