<svg width="20" height="20" viewBox="0 0 20 20" fill="none" xmlns="http://www.w3.org/2000/svg">
<g clip-path="url(#clip0_74_7585)">
<path d="M20 10.0117L18.2883 7.78199L18.6712 5.01172L16.0586 3.97568L15.0225 1.36307L12.2523 1.74595L10 0.0117188L7.77027 1.72343L5 1.34055L3.96396 3.95316L1.35135 4.9892L1.73423 7.75947L0 10.0117L1.71171 12.2414L1.32883 15.0117L3.94144 16.0478L4.97748 18.6604L7.74775 18.2775L9.97748 19.9892L12.2072 18.2775L14.9775 18.6604L16.0135 16.0478L18.6261 14.9892L18.2432 12.2189L20 10.0117ZM9.18919 13.255L5.85586 10.5072L6.57658 9.62884L9.05405 11.6559L13.2883 6.76848L14.1441 7.51172L9.18919 13.255Z" fill="#5D6C7B"/>
</g>
<defs>
<clipPath id="clip0_74_7585">
<rect width="20" height="20" fill="white"/>
</clipPath>
</defs>
</svg>
