<svg width="20" height="20" viewBox="0 0 20 20" fill="none" xmlns="http://www.w3.org/2000/svg">
<path d="M17.9936 5.51493C17.733 4.90538 17.3571 4.353 16.8871 3.88873C16.4168 3.42307 15.8622 3.05302 15.2536 2.7987C14.6225 2.53394 13.9456 2.39842 13.2623 2.40001C12.3035 2.40001 11.3682 2.66515 10.5553 3.16597C10.3608 3.28578 10.1761 3.41737 10.0011 3.56074C9.82604 3.41737 9.6413 3.28578 9.44683 3.16597C8.63396 2.66515 7.69857 2.40001 6.73985 2.40001C6.0495 2.40001 5.38053 2.53356 4.74851 2.7987C4.13789 3.05402 3.58755 3.42129 3.11499 3.88873C2.64438 4.35248 2.26844 4.90498 2.00848 5.51493C1.73817 6.14931 1.6001 6.82296 1.6001 7.51626C1.6001 8.17028 1.73234 8.85179 1.99487 9.54509C2.21461 10.1245 2.52965 10.7255 2.93219 11.3323C3.57005 12.2927 4.44709 13.2944 5.5361 14.3098C7.34075 15.9929 9.1279 17.1556 9.20375 17.2028L9.66463 17.5013C9.86882 17.6329 10.1314 17.6329 10.3355 17.5013L10.7964 17.2028C10.8723 17.1537 12.6575 15.9929 14.4641 14.3098C15.5531 13.2944 16.4301 12.2927 17.068 11.3323C17.4705 10.7255 17.7875 10.1245 18.0053 9.54509C18.2678 8.85179 18.4001 8.17028 18.4001 7.51626C18.402 6.82296 18.264 6.14931 17.9936 5.51493ZM10.0011 15.9478C10.0011 15.9478 3.07804 11.4679 3.07804 7.51626C3.07804 5.51493 4.7174 3.89266 6.73985 3.89266C8.1614 3.89266 9.39432 4.69397 10.0011 5.86453C10.6078 4.69397 11.8407 3.89266 13.2623 3.89266C15.2847 3.89266 16.9241 5.51493 16.9241 7.51626C16.9241 11.4679 10.0011 15.9478 10.0011 15.9478Z" fill="#6F73EE"/>
</svg>
