<svg width="12" height="18" viewBox="0 0 12 18" fill="none" xmlns="http://www.w3.org/2000/svg">
<path d="M11.2232 0.260732C11.1399 0.101188 10.9748 0 10.7947 0H3.72919C3.51551 0 3.32721 0.141421 3.26608 0.346092L0.742124 8.80412C0.698447 8.95043 0.726477 9.10792 0.817697 9.23032C0.908917 9.35277 1.05263 9.42405 1.20523 9.42405H5.1669L3.57091 17.4212C3.52445 17.6538 3.65361 17.8862 3.8758 17.9691C3.9312 17.9898 3.98835 18 4.04471 18C4.21422 18 4.37673 17.9106 4.46481 17.7559L10.6889 6.82597C10.7741 6.67634 10.7732 6.49172 10.6867 6.34287C10.6002 6.19402 10.4411 6.10147 10.2689 6.10147H7.46637L11.1912 0.760267C11.2942 0.612563 11.3065 0.420397 11.2232 0.260732Z" fill="#5D6C7B"/>
</svg>
