<svg 
  xmlns="http://www.w3.org/2000/svg" 
  width="25" 
  height="25" 
  viewBox="0 0 25 25" 
  fill="#6F73EE"
>
  <path d="M25 12.5137L22.8604 9.72651L23.339 6.26367L20.0732 4.96863L18.7782 1.70286L15.3153 2.18146L12.5 0.0136719L9.71284 2.15331L6.25 1.67471L4.95495 4.94047L1.68919 6.23552L2.16779 9.69836L0 12.5137L2.13964 15.3008L1.66104 18.7637L4.9268 20.0587L6.22185 23.3245L9.68468 22.8459L12.4718 24.9855L15.259 22.8459L18.7218 23.3245L20.0169 20.0587L23.2827 18.7355L22.8041 15.2727L25 12.5137ZM11.4865 16.5677L7.31982 13.133L8.22072 12.0351L11.3176 14.5689L16.6104 8.45962L17.6802 9.38867L11.4865 16.5677Z"/>
</svg>