<svg 
  xmlns="http://www.w3.org/2000/svg" 
  width="25" 
  height="25" 
  viewBox="0 0 25 25" 
  fill="#6F73EE"
>
  <path d="M10.8546 9.70644C11.819 8.66043 12.3503 7.25734 12.3503 5.75522C12.3503 2.89523 10.3075 0 6.40246 0C4.58512 0 3.05198 0.624205 1.96855 1.80509C1.00885 2.85126 0.480469 4.25404 0.480469 5.75522C0.480469 8.61552 2.51463 11.5106 6.40246 11.5106C8.22658 11.5107 9.76643 10.8869 10.8546 9.70644ZM6.40246 2.67599C8.54211 2.67599 9.51655 4.27322 9.51655 5.75725C9.51655 6.56452 9.24491 7.31183 8.75122 7.86127C8.20046 8.47495 7.40005 8.79945 6.43716 8.79945C4.2434 8.79945 3.24401 7.20237 3.24401 5.7185C3.24401 4.2043 4.22078 2.67599 6.40246 2.67599Z"/>
  <path d="M20.6046 2.21936C20.2507 2.22575 19.7676 2.4464 19.5309 2.70954L1.96364 22.2412C1.72701 22.5045 1.89463 22.8736 2.24853 22.8736H4.54778C4.90167 22.8736 5.38436 22.6578 5.6206 22.3943L23.0792 2.86657C23.3154 2.6028 23.2997 2.17367 22.715 2.17383L20.6046 2.21936Z"/>
  <path d="M18.6847 13.709C16.9025 13.709 15.3984 14.3217 14.3355 15.48C13.3941 16.5059 12.8755 17.8823 12.8755 19.3549C12.8755 22.1605 14.871 25.0007 18.6848 25.0007C20.4747 25.0007 21.9849 24.3886 23.0525 23.2307C23.9987 22.2045 24.5197 20.8281 24.5197 19.3549C24.5196 16.5493 22.5155 13.709 18.6847 13.709ZM18.7192 22.4098C16.5849 22.4098 15.6124 20.807 15.6124 19.3186C15.6124 18.5079 15.8838 17.7578 16.3771 17.2063C16.927 16.5908 17.725 16.2655 18.6848 16.2655C20.8193 16.2655 21.7913 17.868 21.7913 19.3569C21.7913 20.1674 21.5198 20.9177 21.0269 21.4692C20.4768 22.0845 19.6788 22.4098 18.7192 22.4098Z"/>
</svg>