<svg 
  xmlns="http://www.w3.org/2000/svg" 
  width="25" 
  height="25" 
  viewBox="0 0 25 25" 
  fill="#6F73EE"
>
  <path d="M23.9404 9.06808H18.7539L15.8446 2.40631C15.6827 2.03566 15.251 1.86627 14.8802 2.02824C14.5095 2.1901 14.3403 2.62189 14.5022 2.99259L17.1555 9.06813H7.84456L10.4979 2.99259C10.6597 2.62189 10.4905 2.19015 10.1198 2.02824C9.74915 1.86627 9.31731 2.03556 9.15549 2.40631L6.24612 9.06808H1.05964C0.381177 9.06808 -0.122338 9.68229 0.0260991 10.3288L2.7573 22.2248C2.86575 22.6972 3.29514 23.0329 3.79085 23.0329H21.2092C21.7049 23.0329 22.1343 22.6972 22.2428 22.2248L24.974 10.3288C25.1224 9.68234 24.6188 9.06808 23.9404 9.06808ZM6.38391 11.3144C6.28606 11.3144 6.1866 11.2946 6.09114 11.2529C5.72044 11.0911 5.55115 10.6593 5.71306 10.2886L6.26326 9.02873H7.86169L7.05544 10.8748C6.93528 11.1502 6.66624 11.3144 6.38391 11.3144ZM8.83792 19.1267C8.83792 19.5312 8.50999 19.8591 8.10549 19.8591C7.701 19.8591 7.37307 19.5312 7.37307 19.1267V13.7556C7.37307 13.3511 7.701 13.0232 8.10549 13.0232C8.50999 13.0232 8.83792 13.3511 8.83792 13.7556V19.1267ZM13.2324 19.1267C13.2324 19.5312 12.9045 19.8591 12.5 19.8591C12.0955 19.8591 11.7676 19.5312 11.7676 19.1267V13.7556C11.7676 13.3511 12.0955 13.0232 12.5 13.0232C12.9045 13.0232 13.2324 13.3511 13.2324 13.7556V19.1267ZM17.627 19.1267C17.627 19.5312 17.299 19.8591 16.8946 19.8591C16.4901 19.8591 16.1621 19.5312 16.1621 19.1267V13.7556C16.1621 13.3511 16.4901 13.0232 16.8946 13.0232C17.299 13.0232 17.627 13.3511 17.627 13.7556V19.1267ZM18.9089 11.2529C18.8135 11.2946 18.714 11.3144 18.6161 11.3144C18.3338 11.3144 18.0648 11.1502 17.9446 10.8749L17.1383 9.02877H18.7367L19.2869 10.2886C19.4489 10.6593 19.2796 11.0911 18.9089 11.2529Z"/>
</svg>