<svg width="20" height="20" viewBox="0 0 20 20" fill="none" xmlns="http://www.w3.org/2000/svg">
<g clip-path="url(#clip0_74_7592)">
<path d="M18.0755 15.1236L16.9903 2.10085C16.9451 1.55976 16.7299 1.04691 16.3842 0.656637C16.009 0.233202 15.5248 0 15.0209 0H13.7656C13.4421 0 13.1797 0.262342 13.1797 0.585934C13.1797 0.909526 13.4421 1.17187 13.7656 1.17187H15.0209C15.3596 1.17187 15.772 1.59339 15.8225 2.19823L16.6911 12.6225C14.5174 12.9897 12.8421 14.7523 12.5861 16.9452H7.4137C7.12277 14.4749 5.0161 12.552 2.46881 12.552C1.72237 12.552 1.00428 12.7133 0.33464 13.0314C0.0423374 13.1703 -0.0820369 13.5198 0.0568295 13.8121C0.195657 14.1043 0.545186 14.2287 0.837489 14.0899C1.34878 13.847 1.89764 13.7238 2.46881 13.7238C4.36899 13.7238 5.94832 15.123 6.23097 16.9452H4.86668C4.6029 15.8659 3.62818 15.0624 2.46877 15.0624C1.10753 15.0624 0.000111089 16.1699 0.000111089 17.5311C0.000111089 18.8924 1.10753 19.9998 2.46877 19.9998C3.62818 19.9998 4.6029 19.1963 4.86668 18.117H13.138C13.4616 18.117 13.7239 17.8547 13.7239 17.5311C13.7239 15.6853 15.0311 14.1406 16.7888 13.7957L16.9012 15.1442C15.8442 15.4233 15.0625 16.3875 15.0625 17.5311C15.0625 18.8923 16.17 19.9998 17.5312 19.9998C18.8925 19.9998 20 18.8923 20 17.5311C20 16.3569 19.1757 15.3723 18.0755 15.1236Z" fill="#5D6C7B"/>
</g>
<defs>
<clipPath id="clip0_74_7592">
<rect width="20" height="20" fill="white"/>
</clipPath>
</defs>
</svg>
