<svg width="18" height="16" viewBox="0 0 18 16" fill="none" xmlns="http://www.w3.org/2000/svg">
<path d="M8.47268 3.56442V0.236069C6.43987 0.352752 4.53356 1.14268 3.01196 2.49876L5.36518 4.85198C6.25077 4.11475 7.32609 3.66918 8.47268 3.56442Z" fill="#5D6C7B"/>
<path d="M4.61925 5.59762L2.26606 3.24445C0.90882 4.76562 0.11791 6.67207 0.000488281 8.70536H3.32898C3.43445 7.55853 3.88093 6.48314 4.61925 5.59762Z" fill="#5D6C7B"/>
<path d="M14.6711 8.70536H17.9996C17.8822 6.67207 17.0913 4.76562 15.734 3.24445L13.3809 5.59762C14.1192 6.4831 14.5657 7.55853 14.6711 8.70536Z" fill="#5D6C7B"/>
<path d="M14.6703 9.76006C14.4959 11.676 13.4441 12.845 13.0265 13.2625C12.8203 13.4688 12.8203 13.8033 13.0265 14.0096L14.6266 15.6097C14.7297 15.7129 14.865 15.7644 15.0001 15.7644C15.1353 15.7644 15.2705 15.7129 15.3736 15.6097C16.953 14.0305 17.8739 11.9698 18 9.76006H14.6703Z" fill="#5D6C7B"/>
<path d="M3.27189 12.7858C3.41919 12.5544 3.64215 12.2058 3.90962 11.7934C3.63544 11.2499 3.40358 10.5724 3.32965 9.76006H0C0.126035 11.9698 1.04695 14.0305 2.62628 15.6097C2.72943 15.7129 2.8646 15.7645 2.99978 15.7645C3.13495 15.7645 3.27016 15.7129 3.37331 15.6097L3.92119 15.0618C3.76249 14.9854 3.61607 14.8821 3.48785 14.754C2.95952 14.2256 2.87068 13.4163 3.27189 12.7858Z" fill="#5D6C7B"/>
<path d="M9.52734 0.236069V3.56442C10.6739 3.66918 11.7493 4.11472 12.6348 4.85198L14.9881 2.49876C13.4665 1.14264 11.5601 0.352752 9.52734 0.236069Z" fill="#5D6C7B"/>
<path d="M7.82847 8.06995C7.01228 8.88614 4.45115 12.8973 4.16181 13.352C4.02909 13.5605 4.05905 13.8332 4.23381 14.008C4.40857 14.1828 4.68128 14.2127 4.88983 14.08C5.3445 13.7907 9.3557 11.2295 10.1719 10.4134C10.818 9.76729 10.818 8.71605 10.1719 8.06999C9.52582 7.42392 8.47454 7.42388 7.82847 8.06995Z" fill="#5D6C7B"/>
</svg>
