<svg width="20" height="20" viewBox="0 0 20 20" fill="none" xmlns="http://www.w3.org/2000/svg">
<g id="012-vk 1" clip-path="url(#clip0_469_6695)">
<path id="Vector" d="M16.5958 10.856C16.2725 10.4477 16.365 10.266 16.5958 9.90102C16.6 9.89685 19.2692 6.20852 19.5442 4.95768L19.5458 4.95685C19.6825 4.50102 19.5458 4.16602 18.885 4.16602H16.6983C16.1417 4.16602 15.885 4.45352 15.7475 4.77518C15.7475 4.77518 14.6342 7.44018 13.0592 9.16768C12.5508 9.66685 12.3158 9.82685 12.0383 9.82685C11.9017 9.82685 11.6892 9.66685 11.6892 9.21102V4.95685C11.6892 4.41018 11.5333 4.16602 11.0725 4.16602H7.63417C7.285 4.16602 7.0775 4.42102 7.0775 4.65852C7.0775 5.17685 7.865 5.29602 7.94667 6.75435V9.91852C7.94667 10.6118 7.82083 10.7393 7.54167 10.7393C6.79833 10.7393 4.99417 8.06352 3.925 5.00102C3.70917 4.40685 3.49833 4.16685 2.9375 4.16685H0.75C0.125833 4.16685 0 4.45435 0 4.77602C0 5.34435 0.743333 8.17018 3.45667 11.9035C5.265 14.4518 7.81167 15.8327 10.1283 15.8327C11.5208 15.8327 11.6908 15.526 11.6908 14.9985C11.6908 12.5635 11.565 12.3335 12.2625 12.3335C12.5858 12.3335 13.1425 12.4935 14.4425 13.7227C15.9283 15.1802 16.1725 15.8327 17.0042 15.8327H19.1908C19.8142 15.8327 20.13 15.526 19.9483 14.921C19.5325 13.6485 16.7225 11.031 16.5958 10.856Z" fill="#4B729F"/>
</g>
<defs>
<clipPath id="clip0_469_6695">
<rect width="20" height="20" fill="white"/>
</clipPath>
</defs>
</svg>
