<svg width="20" height="20" viewBox="0 0 20 20" fill="none" xmlns="http://www.w3.org/2000/svg">
<g id="018-youtube 1" clip-path="url(#clip0_469_6709)">
<path id="Vector" d="M0.435184 14.8959C0.843517 16.3442 2.09268 16.6092 2.17602 16.6601C4.23185 17.2201 15.7552 17.2217 17.8419 16.6601C19.271 16.2467 19.5335 14.9792 19.5827 14.8959C20.1269 12.0009 20.1627 8.22673 19.5577 4.94173L19.5827 5.10506C19.1744 3.65673 17.9252 3.39173 17.8419 3.3409C15.8135 2.79006 4.26018 2.76923 2.17602 3.3409C0.746851 3.75506 0.484351 5.02173 0.435184 5.10506C-0.147316 8.14756 -0.176483 11.6384 0.435184 14.8959ZM8.00685 13.0434V6.9659L13.2285 10.0092L8.00685 13.0434Z" fill="#E53935"/>
</g>
<defs>
<clipPath id="clip0_469_6709">
<rect width="20" height="20" fill="white"/>
</clipPath>
</defs>
</svg>
